<svg id="mermaid-1636568199806" width="100%" xmlns="http://www.w3.org/2000/svg" xmlns:xlink="http://www.w3.org/1999/xlink" height="236.3125" style="max-width: 387.046875px;" viewBox="-20 -20 387.046875 236.3125"><style>#mermaid-1636568199806{font-family:"trebuchet ms",verdana,arial,sans-serif;font-size:16px;fill:#333;}#mermaid-1636568199806 .error-icon{fill:#552222;}#mermaid-1636568199806 .error-text{fill:#552222;stroke:#552222;}#mermaid-1636568199806 .edge-thickness-normal{stroke-width:2px;}#mermaid-1636568199806 .edge-thickness-thick{stroke-width:3.5px;}#mermaid-1636568199806 .edge-pattern-solid{stroke-dasharray:0;}#mermaid-1636568199806 .edge-pattern-dashed{stroke-dasharray:3;}#mermaid-1636568199806 .edge-pattern-dotted{stroke-dasharray:2;}#mermaid-1636568199806 .marker{fill:#333333;stroke:#333333;}#mermaid-1636568199806 .marker.cross{stroke:#333333;}#mermaid-1636568199806 svg{font-family:"trebuchet ms",verdana,arial,sans-serif;font-size:16px;}#mermaid-1636568199806 g.classGroup text{fill:#9370DB;fill:#131300;stroke:none;font-family:"trebuchet ms",verdana,arial,sans-serif;font-size:10px;}#mermaid-1636568199806 g.classGroup text .title{font-weight:bolder;}#mermaid-1636568199806 .classTitle{font-weight:bolder;}#mermaid-1636568199806 .node rect,#mermaid-1636568199806 .node circle,#mermaid-1636568199806 .node ellipse,#mermaid-1636568199806 .node polygon,#mermaid-1636568199806 .node path{fill:#ECECFF;stroke:#9370DB;stroke-width:1px;}#mermaid-1636568199806 .divider{stroke:#9370DB;stroke:1;}#mermaid-1636568199806 g.clickable{cursor:pointer;}#mermaid-1636568199806 g.classGroup rect{fill:#ECECFF;stroke:#9370DB;}#mermaid-1636568199806 g.classGroup line{stroke:#9370DB;stroke-width:1;}#mermaid-1636568199806 .classLabel .box{stroke:none;stroke-width:0;fill:#ECECFF;opacity:0.5;}#mermaid-1636568199806 .classLabel .label{fill:#9370DB;font-size:10px;}#mermaid-1636568199806 .relation{stroke:#333333;stroke-width:1;fill:none;}#mermaid-1636568199806 .dashed-line{stroke-dasharray:3;}#mermaid-1636568199806 #compositionStart,#mermaid-1636568199806 .composition{fill:#333333 !important;stroke:#333333 !important;stroke-width:1;}#mermaid-1636568199806 #compositionEnd,#mermaid-1636568199806 .composition{fill:#333333 !important;stroke:#333333 !important;stroke-width:1;}#mermaid-1636568199806 #dependencyStart,#mermaid-1636568199806 .dependency{fill:#333333 !important;stroke:#333333 !important;stroke-width:1;}#mermaid-1636568199806 #dependencyStart,#mermaid-1636568199806 .dependency{fill:#333333 !important;stroke:#333333 !important;stroke-width:1;}#mermaid-1636568199806 #extensionStart,#mermaid-1636568199806 .extension{fill:#333333 !important;stroke:#333333 !important;stroke-width:1;}#mermaid-1636568199806 #extensionEnd,#mermaid-1636568199806 .extension{fill:#333333 !important;stroke:#333333 !important;stroke-width:1;}#mermaid-1636568199806 #aggregationStart,#mermaid-1636568199806 .aggregation{fill:#ECECFF !important;stroke:#333333 !important;stroke-width:1;}#mermaid-1636568199806 #aggregationEnd,#mermaid-1636568199806 .aggregation{fill:#ECECFF !important;stroke:#333333 !important;stroke-width:1;}#mermaid-1636568199806 .edgeTerminals{font-size:11px;}#mermaid-1636568199806:root{--mermaid-font-family:"trebuchet ms",verdana,arial,sans-serif;}</style><g></g><defs><marker id="extensionStart" class="extension" refX="0" refY="7" markerWidth="190" markerHeight="240" orient="auto"><path d="M 1,7 L18,13 V 1 Z"></path></marker></defs><defs><marker id="extensionEnd" refX="19" refY="7" markerWidth="20" markerHeight="28" orient="auto"><path d="M 1,1 V 13 L18,7 Z"></path></marker></defs><defs><marker id="compositionStart" class="extension" refX="0" refY="7" markerWidth="190" markerHeight="240" orient="auto"><path d="M 18,7 L9,13 L1,7 L9,1 Z"></path></marker></defs><defs><marker id="compositionEnd" refX="19" refY="7" markerWidth="20" markerHeight="28" orient="auto"><path d="M 18,7 L9,13 L1,7 L9,1 Z"></path></marker></defs><defs><marker id="aggregationStart" class="extension" refX="0" refY="7" markerWidth="190" markerHeight="240" orient="auto"><path d="M 18,7 L9,13 L1,7 L9,1 Z"></path></marker></defs><defs><marker id="aggregationEnd" refX="19" refY="7" markerWidth="20" markerHeight="28" orient="auto"><path d="M 18,7 L9,13 L1,7 L9,1 Z"></path></marker></defs><defs><marker id="dependencyStart" class="extension" refX="0" refY="7" markerWidth="190" markerHeight="240" orient="auto"><path d="M 5,7 L9,13 L1,7 L9,1 Z"></path></marker></defs><defs><marker id="dependencyEnd" refX="19" refY="7" markerWidth="20" markerHeight="28" orient="auto"><path d="M 18,7 L9,13 L14,7 L9,1 Z"></path></marker></defs><g id="classid-Animal-0" class="classGroup" transform="translate(143.8046875,0 )"><rect x="0" y="0" width="80.109375" height="78.15625" class=" "></rect><text y="15" x="0"><tspan class="title" x="24.0078125">Animal</tspan></text><line x1="0" y1="21" y2="21" x2="80.109375"></line><text x="5" y="31" fill="white" class="classText"><tspan x="5">+int age</tspan><tspan x="5" dy="10">+String gender</tspan></text><line x1="0" y1="47.0625" y2="47.0625" x2="80.109375"></line><text x="5" y="62.0625" fill="white" class="classText"><tspan x="5">+isMammal()</tspan><tspan x="5" dy="10">+mate()</tspan></text></g><g id="classid-Duck-1" class="classGroup" transform="translate(0,128.15625 )"><rect x="0" y="0" width="94.140625" height="68.15625" class=" "></rect><text y="15" x="0"><tspan class="title" x="35.6015625">Duck</tspan></text><line x1="0" y1="21" y2="21" x2="94.140625"></line><text x="5" y="31" fill="white" class="classText"><tspan x="5">+String beakColor</tspan></text><line x1="0" y1="37.0625" y2="37.0625" x2="94.140625"></line><text x="5" y="52.0625" fill="white" class="classText"><tspan x="5">+swim()</tspan><tspan x="5" dy="10">+quack()</tspan></text></g><g id="classid-Fish-2" class="classGroup" transform="translate(144.140625,133.1875 )"><rect x="0" y="0" width="79.4375" height="58.09375" class=" "></rect><text y="15" x="0"><tspan class="title" x="30.1875">Fish</tspan></text><line x1="0" y1="21" y2="21" x2="79.4375"></line><text x="5" y="31" fill="white" class="classText"><tspan x="5">-int sizeInFeet</tspan></text><line x1="0" y1="37" y2="37" x2="79.4375"></line><text x="5" y="52" fill="white" class="classText"><tspan x="5">-canEat()</tspan></text></g><g id="classid-Zebra-3" class="classGroup" transform="translate(273.578125,133.1875 )"><rect x="0" y="0" width="73.46875" height="58.09375" class=" "></rect><text y="15" x="0"><tspan class="title" x="23.3515625">Zebra</tspan></text><line x1="0" y1="21" y2="21" x2="73.46875"></line><text x="5" y="31" fill="white" class="classText"><tspan x="5">+bool is_wild</tspan></text><line x1="0" y1="37" y2="37" x2="73.46875"></line><text x="5" y="52" fill="white" class="classText"><tspan x="5">+run()</tspan></text></g><path d="M143.8046875,57.84153506767948L127.68229166666667,65.39398755639957C111.55989583333333,72.94644004511964,79.31510416666667,88.05134502255983,63.192708333333336,99.77046417794658C47.0703125,111.48958333333333,47.0703125,119.82291666666667,47.0703125,123.98958333333333L47.0703125,128.15625" id="edge0" class="relation" marker-start="url(#extensionStart)"></path><path d="M183.859375,78.15625L183.859375,82.32291666666667C183.859375,86.48958333333333,183.859375,94.82291666666667,183.859375,103.99479166666667C183.859375,113.16666666666667,183.859375,123.17708333333333,183.859375,128.18229166666666L183.859375,133.1875" id="edge1" class="relation" marker-start="url(#extensionStart)"></path><path d="M223.9140625,59.37520561750895L238.31380208333334,66.67204634792414C252.71354166666666,73.9688870783393,281.5130208333333,88.56256853916966,295.9127604166667,100.86461760291816C310.3125,113.16666666666667,310.3125,123.17708333333333,310.3125,128.18229166666666L310.3125,133.1875" id="edge2" class="relation" marker-start="url(#extensionStart)"></path></svg>