<svg xmlns="http://www.w3.org/2000/svg" xmlns:xlink="http://www.w3.org/1999/xlink" contentStyleType="text/css" height="702px" preserveAspectRatio="none" style="width:1307px;height:702px;background:#FFFFFF;" version="1.1" viewBox="0 0 1307 702" width="1307px" zoomAndPan="magnify"><defs/><g><!--class UserInfo--><g id="elem_UserInfo"><rect codeLine="12" fill="#F1F1F1" height="178.375" id="UserInfo" rx="2.5" ry="2.5" style="stroke:#181818;stroke-width:0.5;" width="387.1624" x="691" y="517"/><ellipse cx="851.1281" cy="533" fill="#FFFFFF" rx="11" ry="11" style="stroke:#181818;stroke-width:1.0;"/><path d="M851.9718,539.75 L849.5187,539.75 L849.5187,529.5 L846.3781,529.5 L846.3781,527.3594 L855.1125,527.3594 L855.1125,529.5 L851.9718,529.5 L851.9718,539.75 Z " fill="#000000"/><text fill="#000000" font-family="sans-serif" font-size="14" lengthAdjust="spacing" textLength="58.4063" x="871.6281" y="537.8467">UserInfo</text><line style="stroke:#181818;stroke-width:0.5;" x1="692" x2="1077.1624" y1="549" y2="549"/><path d="M704.4167,556.4635 C702.8067,556.4635 701.5,557.7702 701.5,559.3802 C701.5,559.5669 701.5,559.7535 701.535,559.9285 L698,563.4635 L698,565.7969 L701.5,565.7969 L701.5,563.4635 L703.8333,563.4635 L703.8333,562.2969 L703.8683,562.2619 C704.0433,562.2969 704.23,562.2969 704.4167,562.2969 C706.0267,562.2969 707.3333,560.9902 707.3333,559.3802 C707.3333,557.7702 706.0267,556.4635 704.4167,556.4635 M705,557.6302 C705.6417,557.6302 706.1667,558.1552 706.1667,558.7969 C706.1667,559.4385 705.6417,559.9635 705,559.9635 C704.3583,559.9635 703.8333,559.4385 703.8333,558.7969 C703.8333,558.1552 704.3583,557.6302 705,557.6302 " fill="#B8861B" style="stroke:;stroke-width:0.0;stroke-dasharray:;"/><text fill="#000000" font-family="sans-serif" font-size="14" font-weight="bold" lengthAdjust="spacing" textLength="49.5195" x="713.2074" y="565.9951">userid</text><text fill="#000000" font-family="sans-serif" font-size="14" lengthAdjust="spacing" textLength="58.1328" x="762.7269" y="565.9951">: SERIAL</text><path d="M701.5,572.7604 C699.5633,572.7604 698,574.3238 698,576.2604 C698,578.1971 699.5633,579.7604 701.5,579.7604 C703.4367,579.7604 705,578.1971 705,576.2604 C705,574.3238 703.4367,572.7604 701.5,572.7604 " fill="#EFEFEF" style="stroke:;stroke-width:0.0;stroke-dasharray:;"/><text fill="#000000" font-family="sans-serif" font-size="14" lengthAdjust="spacing" textLength="309.6885" x="712.7835" y="582.292">userName: CHARACTER VARYING NOT NULL</text><path d="M701.5,589.0573 C699.5633,589.0573 698,590.6206 698,592.5573 C698,594.494 699.5633,596.0573 701.5,596.0573 C703.4367,596.0573 705,594.494 705,592.5573 C705,590.6206 703.4367,589.0573 701.5,589.0573 " fill="#EFEFEF" style="stroke:;stroke-width:0.0;stroke-dasharray:;"/><text fill="#000000" font-family="sans-serif" font-size="14" lengthAdjust="spacing" textLength="305.9902" x="712.7835" y="598.5889">realName: CHARACTER VARYING NOT NULL</text><path d="M701.5,605.3542 C699.5633,605.3542 698,606.9175 698,608.8542 C698,610.7908 699.5633,612.3542 701.5,612.3542 C703.4367,612.3542 705,610.7908 705,608.8542 C705,606.9175 703.4367,605.3542 701.5,605.3542 " fill="#EFEFEF" style="stroke:;stroke-width:0.0;stroke-dasharray:;"/><text fill="#000000" font-family="sans-serif" font-size="14" lengthAdjust="spacing" textLength="359.3789" x="712.7835" y="614.8857">status: BOOLEAN NOT NULL -- Active or Suspended</text><path d="M701.5,621.651 C699.5633,621.651 698,623.2144 698,625.151 C698,627.0877 699.5633,628.651 701.5,628.651 C703.4367,628.651 705,627.0877 705,625.151 C705,623.2144 703.4367,621.651 701.5,621.651 " fill="#EFEFEF" style="stroke:;stroke-width:0.0;stroke-dasharray:;"/><text fill="#000000" font-family="sans-serif" font-size="14" lengthAdjust="spacing" textLength="277.0742" x="712.7835" y="631.1826">otherProfileStuff: CHARACTER VARYING</text><path d="M701.5,637.9479 C699.5633,637.9479 698,639.5113 698,641.4479 C698,643.3846 699.5633,644.9479 701.5,644.9479 C703.4367,644.9479 705,643.3846 705,641.4479 C705,639.5113 703.4367,637.9479 701.5,637.9479 " fill="#EFEFEF" style="stroke:;stroke-width:0.0;stroke-dasharray:;"/><text fill="#000000" font-family="sans-serif" font-size="14" lengthAdjust="spacing" textLength="257.7285" x="712.7835" y="647.4795">creationTime: TIMESTAMP NOT NULL</text><path d="M701.5,654.2448 C699.5633,654.2448 698,655.8081 698,657.7448 C698,659.6815 699.5633,661.2448 701.5,661.2448 C703.4367,661.2448 705,659.6815 705,657.7448 C705,655.8081 703.4367,654.2448 701.5,654.2448 " fill="#EFEFEF" style="stroke:;stroke-width:0.0;stroke-dasharray:;"/><text fill="#000000" font-family="sans-serif" font-size="14" lengthAdjust="spacing" textLength="201.2227" x="712.7835" y="663.7764">suspendedTime: TIMESTAMP</text><path d="M701.5,670.5417 C699.5633,670.5417 698,672.105 698,674.0417 C698,675.9783 699.5633,677.5417 701.5,677.5417 C703.4367,677.5417 705,675.9783 705,674.0417 C705,672.105 703.4367,670.5417 701.5,670.5417 " fill="#EFEFEF" style="stroke:;stroke-width:0.0;stroke-dasharray:;"/><text fill="#000000" font-family="sans-serif" font-size="14" lengthAdjust="spacing" textLength="177.9941" x="712.7835" y="680.0732">deletedTime: TIMESTAMP</text><line style="stroke:#181818;stroke-width:0.5;" x1="692" x2="1077.1624" y1="687.375" y2="687.375"/></g><!--class Tweet--><g id="elem_Tweet"><rect codeLine="23" fill="#F1F1F1" height="194.6719" id="Tweet" rx="2.5" ry="2.5" style="stroke:#181818;stroke-width:0.5;" width="353.4749" x="460" y="262"/><ellipse cx="611.1286" cy="278" fill="#FFFFFF" rx="11" ry="11" style="stroke:#181818;stroke-width:1.0;"/><path d="M611.9723,284.75 L609.5192,284.75 L609.5192,274.5 L606.3786,274.5 L606.3786,272.3594 L615.113,272.3594 L615.113,274.5 L611.9723,274.5 L611.9723,284.75 Z " fill="#000000"/><text fill="#000000" font-family="sans-serif" font-size="14" lengthAdjust="spacing" textLength="42.7178" x="631.6286" y="282.8467">Tweet</text><line style="stroke:#181818;stroke-width:0.5;" x1="461" x2="812.4749" y1="294" y2="294"/><path d="M473.4167,301.4635 C471.8067,301.4635 470.5,302.7702 470.5,304.3802 C470.5,304.5669 470.5,304.7535 470.535,304.9285 L467,308.4635 L467,310.7969 L470.5,310.7969 L470.5,308.4635 L472.8333,308.4635 L472.8333,307.2969 L472.8683,307.2619 C473.0433,307.2969 473.23,307.2969 473.4167,307.2969 C475.0267,307.2969 476.3333,305.9902 476.3333,304.3802 C476.3333,302.7702 475.0267,301.4635 473.4167,301.4635 M474,302.6302 C474.6417,302.6302 475.1667,303.1552 475.1667,303.7969 C475.1667,304.4385 474.6417,304.9635 474,304.9635 C473.3583,304.9635 472.8333,304.4385 472.8333,303.7969 C472.8333,303.1552 473.3583,302.6302 474,302.6302 " fill="#B8861B" style="stroke:;stroke-width:0.0;stroke-dasharray:;"/><text fill="#000000" font-family="sans-serif" font-size="14" font-weight="bold" lengthAdjust="spacing" textLength="60.5391" x="482.2074" y="310.9951">tweetId</text><text fill="#000000" font-family="sans-serif" font-size="14" lengthAdjust="spacing" textLength="44.5703" x="542.7464" y="310.9951">: UUID</text><path d="M473.4167,317.7604 C471.8067,317.7604 470.5,319.0671 470.5,320.6771 C470.5,320.8638 470.5,321.0504 470.535,321.2254 L467,324.7604 L467,327.0938 L470.5,327.0938 L470.5,324.7604 L472.8333,324.7604 L472.8333,323.5938 L472.8683,323.5588 C473.0433,323.5938 473.23,323.5938 473.4167,323.5938 C475.0267,323.5938 476.3333,322.2871 476.3333,320.6771 C476.3333,319.0671 475.0267,317.7604 473.4167,317.7604 M474,318.9271 C474.6417,318.9271 475.1667,319.4521 475.1667,320.0938 C475.1667,320.7354 474.6417,321.2604 474,321.2604 C473.3583,321.2604 472.8333,320.7354 472.8333,320.0938 C472.8333,319.4521 473.3583,318.9271 474,318.9271 " fill="#AAAAAA" style="stroke:;stroke-width:0.0;stroke-dasharray:;"/><text fill="#000000" font-family="sans-serif" font-size="14" lengthAdjust="spacing" textLength="215.7627" x="481.7835" y="327.292">userId: SERIAL «FK» NOT NULL</text><path d="M473.4167,334.0573 C471.8067,334.0573 470.5,335.364 470.5,336.974 C470.5,337.1606 470.5,337.3473 470.535,337.5223 L467,341.0573 L467,343.3906 L470.5,343.3906 L470.5,341.0573 L472.8333,341.0573 L472.8333,339.8906 L472.8683,339.8556 C473.0433,339.8906 473.23,339.8906 473.4167,339.8906 C475.0267,339.8906 476.3333,338.584 476.3333,336.974 C476.3333,335.364 475.0267,334.0573 473.4167,334.0573 M474,335.224 C474.6417,335.224 475.1667,335.749 475.1667,336.3906 C475.1667,337.0323 474.6417,337.5573 474,337.5573 C473.3583,337.5573 472.8333,337.0323 472.8333,336.3906 C472.8333,335.749 473.3583,335.224 474,335.224 " fill="#AAAAAA" style="stroke:;stroke-width:0.0;stroke-dasharray:;"/><text fill="#000000" font-family="sans-serif" font-size="14" lengthAdjust="spacing" textLength="197.2852" x="481.7835" y="343.5889">repostTweetId: SERIAL «FK»</text><path d="M470.5,350.3542 C468.5633,350.3542 467,351.9175 467,353.8542 C467,355.7908 468.5633,357.3542 470.5,357.3542 C472.4367,357.3542 474,355.7908 474,353.8542 C474,351.9175 472.4367,350.3542 470.5,350.3542 " fill="#EFEFEF" style="stroke:;stroke-width:0.0;stroke-dasharray:;"/><text fill="#000000" font-family="sans-serif" font-size="14" lengthAdjust="spacing" textLength="173.5713" x="481.7835" y="359.8857">content: TEXT NOT NULL</text><path d="M470.5,366.651 C468.5633,366.651 467,368.2144 467,370.151 C467,372.0877 468.5633,373.651 470.5,373.651 C472.4367,373.651 474,372.0877 474,370.151 C474,368.2144 472.4367,366.651 470.5,366.651 " fill="#EFEFEF" style="stroke:;stroke-width:0.0;stroke-dasharray:;"/><text fill="#000000" font-family="sans-serif" font-size="14" lengthAdjust="spacing" textLength="325.6914" x="481.7835" y="376.1826">sentimentScore: REAL NOT NULL DEFAULT 0.0</text><path d="M470.5,382.9479 C468.5633,382.9479 467,384.5113 467,386.4479 C467,388.3846 468.5633,389.9479 470.5,389.9479 C472.4367,389.9479 474,388.3846 474,386.4479 C474,384.5113 472.4367,382.9479 470.5,382.9479 " fill="#EFEFEF" style="stroke:;stroke-width:0.0;stroke-dasharray:;"/><text fill="#000000" font-family="sans-serif" font-size="14" lengthAdjust="spacing" textLength="230.501" x="481.7835" y="392.4795">postTime: TIMESTAMP NOT NULL</text><path d="M470.5,399.2448 C468.5633,399.2448 467,400.8081 467,402.7448 C467,404.6815 468.5633,406.2448 470.5,406.2448 C472.4367,406.2448 474,404.6815 474,402.7448 C474,400.8081 472.4367,399.2448 470.5,399.2448 " fill="#EFEFEF" style="stroke:;stroke-width:0.0;stroke-dasharray:;"/><text fill="#000000" font-family="sans-serif" font-size="14" lengthAdjust="spacing" textLength="173.1953" x="481.7835" y="408.7764">modifyTime: TIMESTAMP</text><path d="M470.5,415.5417 C468.5633,415.5417 467,417.105 467,419.0417 C467,420.9783 468.5633,422.5417 470.5,422.5417 C472.4367,422.5417 474,420.9783 474,419.0417 C474,417.105 472.4367,415.5417 470.5,415.5417 " fill="#EFEFEF" style="stroke:;stroke-width:0.0;stroke-dasharray:;"/><text fill="#000000" font-family="sans-serif" font-size="14" lengthAdjust="spacing" textLength="201.2227" x="481.7835" y="425.0732">suspendedTime: TIMESTAMP</text><path d="M470.5,431.8385 C468.5633,431.8385 467,433.4019 467,435.3385 C467,437.2752 468.5633,438.8385 470.5,438.8385 C472.4367,438.8385 474,437.2752 474,435.3385 C474,433.4019 472.4367,431.8385 470.5,431.8385 " fill="#EFEFEF" style="stroke:;stroke-width:0.0;stroke-dasharray:;"/><text fill="#000000" font-family="sans-serif" font-size="14" lengthAdjust="spacing" textLength="177.9941" x="481.7835" y="441.3701">deletedTime: TIMESTAMP</text><line style="stroke:#181818;stroke-width:0.5;" x1="461" x2="812.4749" y1="448.6719" y2="448.6719"/></g><!--class Media--><g id="elem_Media"><rect codeLine="38" fill="#F1F1F1" height="194.6719" id="Media" rx="2.5" ry="2.5" style="stroke:#181818;stroke-width:0.5;" width="336.6859" x="295" y="7"/><ellipse cx="438.069" cy="23" fill="#FFFFFF" rx="11" ry="11" style="stroke:#181818;stroke-width:1.0;"/><path d="M438.9128,29.75 L436.4596,29.75 L436.4596,19.5 L433.319,19.5 L433.319,17.3594 L442.0534,17.3594 L442.0534,19.5 L438.9128,19.5 L438.9128,29.75 Z " fill="#000000"/><text fill="#000000" font-family="sans-serif" font-size="14" lengthAdjust="spacing" textLength="42.0479" x="458.569" y="27.8467">Media</text><line style="stroke:#181818;stroke-width:0.5;" x1="296" x2="630.6859" y1="39" y2="39"/><path d="M308.4167,46.4635 C306.8067,46.4635 305.5,47.7702 305.5,49.3802 C305.5,49.5669 305.5,49.7535 305.535,49.9285 L302,53.4635 L302,55.7969 L305.5,55.7969 L305.5,53.4635 L307.8333,53.4635 L307.8333,52.2969 L307.8683,52.2619 C308.0433,52.2969 308.23,52.2969 308.4167,52.2969 C310.0267,52.2969 311.3333,50.9902 311.3333,49.3802 C311.3333,47.7702 310.0267,46.4635 308.4167,46.4635 M309,47.6302 C309.6417,47.6302 310.1667,48.1552 310.1667,48.7969 C310.1667,49.4385 309.6417,49.9635 309,49.9635 C308.3583,49.9635 307.8333,49.4385 307.8333,48.7969 C307.8333,48.1552 308.3583,47.6302 309,47.6302 " fill="#B8861B" style="stroke:;stroke-width:0.0;stroke-dasharray:;"/><text fill="#000000" font-family="sans-serif" font-size="14" font-weight="bold" lengthAdjust="spacing" textLength="63.5811" x="317.2074" y="55.9951">mediaId</text><text fill="#000000" font-family="sans-serif" font-size="14" lengthAdjust="spacing" textLength="44.5703" x="380.7884" y="55.9951">: UUID</text><path d="M308.4167,62.7604 C306.8067,62.7604 305.5,64.0671 305.5,65.6771 C305.5,65.8638 305.5,66.0504 305.535,66.2254 L302,69.7604 L302,72.0938 L305.5,72.0938 L305.5,69.7604 L307.8333,69.7604 L307.8333,68.5938 L307.8683,68.5588 C308.0433,68.5938 308.23,68.5938 308.4167,68.5938 C310.0267,68.5938 311.3333,67.2871 311.3333,65.6771 C311.3333,64.0671 310.0267,62.7604 308.4167,62.7604 M309,63.9271 C309.6417,63.9271 310.1667,64.4521 310.1667,65.0938 C310.1667,65.7354 309.6417,66.2604 309,66.2604 C308.3583,66.2604 307.8333,65.7354 307.8333,65.0938 C307.8333,64.4521 308.3583,63.9271 309,63.9271 " fill="#AAAAAA" style="stroke:;stroke-width:0.0;stroke-dasharray:;"/><text fill="#000000" font-family="sans-serif" font-size="14" lengthAdjust="spacing" textLength="211.3193" x="316.7835" y="72.292">tweetId: UUID «FK» NOT NULL</text><path d="M305.5,79.0573 C303.5633,79.0573 302,80.6206 302,82.5573 C302,84.494 303.5633,86.0573 305.5,86.0573 C307.4367,86.0573 309,84.494 309,82.5573 C309,80.6206 307.4367,79.0573 305.5,79.0573 " fill="#EFEFEF" style="stroke:;stroke-width:0.0;stroke-dasharray:;"/><text fill="#000000" font-family="sans-serif" font-size="14" lengthAdjust="spacing" textLength="308.9023" x="316.7835" y="88.5889">mimetype: CHARACTER VARYING NOT NULL</text><path d="M305.5,95.3542 C303.5633,95.3542 302,96.9175 302,98.8542 C302,100.7908 303.5633,102.3542 305.5,102.3542 C307.4367,102.3542 309,100.7908 309,98.8542 C309,96.9175 307.4367,95.3542 305.5,95.3542 " fill="#EFEFEF" style="stroke:;stroke-width:0.0;stroke-dasharray:;"/><text fill="#000000" font-family="sans-serif" font-size="14" lengthAdjust="spacing" textLength="172.9971" x="316.7835" y="104.8857">size: INTEGER NOT NULL</text><path d="M305.5,111.651 C303.5633,111.651 302,113.2144 302,115.151 C302,117.0877 303.5633,118.651 305.5,118.651 C307.4367,118.651 309,117.0877 309,115.151 C309,113.2144 307.4367,111.651 305.5,111.651 " fill="#EFEFEF" style="stroke:;stroke-width:0.0;stroke-dasharray:;"/><text fill="#000000" font-family="sans-serif" font-size="14" lengthAdjust="spacing" textLength="183.1621" x="316.7835" y="121.1826">content: BYTEA NOT NULL</text><path d="M305.5,127.9479 C303.5633,127.9479 302,129.5113 302,131.4479 C302,133.3846 303.5633,134.9479 305.5,134.9479 C307.4367,134.9479 309,133.3846 309,131.4479 C309,129.5113 307.4367,127.9479 305.5,127.9479 " fill="#EFEFEF" style="stroke:;stroke-width:0.0;stroke-dasharray:;"/><text fill="#000000" font-family="sans-serif" font-size="14" lengthAdjust="spacing" textLength="80.0146" x="316.7835" y="137.4795">exif: BYTEA</text><path d="M305.5,144.2448 C303.5633,144.2448 302,145.8081 302,147.7448 C302,149.6815 303.5633,151.2448 305.5,151.2448 C307.4367,151.2448 309,149.6815 309,147.7448 C309,145.8081 307.4367,144.2448 305.5,144.2448 " fill="#EFEFEF" style="stroke:;stroke-width:0.0;stroke-dasharray:;"/><text fill="#000000" font-family="sans-serif" font-size="14" lengthAdjust="spacing" textLength="230.501" x="316.7835" y="153.7764">postTime: TIMESTAMP NOT NULL</text><path d="M305.5,160.5417 C303.5633,160.5417 302,162.105 302,164.0417 C302,165.9783 303.5633,167.5417 305.5,167.5417 C307.4367,167.5417 309,165.9783 309,164.0417 C309,162.105 307.4367,160.5417 305.5,160.5417 " fill="#EFEFEF" style="stroke:;stroke-width:0.0;stroke-dasharray:;"/><text fill="#000000" font-family="sans-serif" font-size="14" lengthAdjust="spacing" textLength="173.1953" x="316.7835" y="170.0732">modifyTime: TIMESTAMP</text><path d="M305.5,176.8385 C303.5633,176.8385 302,178.4019 302,180.3385 C302,182.2752 303.5633,183.8385 305.5,183.8385 C307.4367,183.8385 309,182.2752 309,180.3385 C309,178.4019 307.4367,176.8385 305.5,176.8385 " fill="#EFEFEF" style="stroke:;stroke-width:0.0;stroke-dasharray:;"/><text fill="#000000" font-family="sans-serif" font-size="14" lengthAdjust="spacing" textLength="177.9941" x="316.7835" y="186.3701">deletedTime: TIMESTAMP</text><line style="stroke:#181818;stroke-width:0.5;" x1="296" x2="630.6859" y1="193.6719" y2="193.6719"/></g><!--class Follower--><g id="elem_Follower"><rect codeLine="50" fill="#F1F1F1" height="113.1875" id="Follower" rx="2.5" ry="2.5" style="stroke:#181818;stroke-width:0.5;" width="286.8382" x="938" y="303"/><ellipse cx="1047.778" cy="319" fill="#FFFFFF" rx="11" ry="11" style="stroke:#181818;stroke-width:1.0;"/><path d="M1048.6217,325.75 L1046.1686,325.75 L1046.1686,315.5 L1043.028,315.5 L1043.028,313.3594 L1051.7624,313.3594 L1051.7624,315.5 L1048.6217,315.5 L1048.6217,325.75 Z " fill="#000000"/><text fill="#000000" font-family="sans-serif" font-size="14" lengthAdjust="spacing" textLength="58.7822" x="1068.278" y="323.8467">Follower</text><line style="stroke:#181818;stroke-width:0.5;" x1="939" x2="1223.8382" y1="335" y2="335"/><path d="M951.4167,342.4635 C949.8067,342.4635 948.5,343.7702 948.5,345.3802 C948.5,345.5669 948.5,345.7535 948.535,345.9285 L945,349.4635 L945,351.7969 L948.5,351.7969 L948.5,349.4635 L950.8333,349.4635 L950.8333,348.2969 L950.8683,348.2619 C951.0433,348.2969 951.23,348.2969 951.4167,348.2969 C953.0267,348.2969 954.3333,346.9902 954.3333,345.3802 C954.3333,343.7702 953.0267,342.4635 951.4167,342.4635 M952,343.6302 C952.6417,343.6302 953.1667,344.1552 953.1667,344.7969 C953.1667,345.4385 952.6417,345.9635 952,345.9635 C951.3583,345.9635 950.8333,345.4385 950.8333,344.7969 C950.8333,344.1552 951.3583,343.6302 952,343.6302 " fill="#B8861B" style="stroke:;stroke-width:0.0;stroke-dasharray:;"/><text fill="#000000" font-family="sans-serif" font-size="14" font-weight="bold" lengthAdjust="spacing" textLength="49.5195" x="960.2074" y="351.9951">userid</text><text fill="#000000" font-family="sans-serif" font-size="14" lengthAdjust="spacing" textLength="58.1328" x="1009.7269" y="351.9951">: SERIAL</text><path d="M951.4167,358.7604 C949.8067,358.7604 948.5,360.0671 948.5,361.6771 C948.5,361.8638 948.5,362.0504 948.535,362.2254 L945,365.7604 L945,368.0938 L948.5,368.0938 L948.5,365.7604 L950.8333,365.7604 L950.8333,364.5938 L950.8683,364.5588 C951.0433,364.5938 951.23,364.5938 951.4167,364.5938 C953.0267,364.5938 954.3333,363.2871 954.3333,361.6771 C954.3333,360.0671 953.0267,358.7604 951.4167,358.7604 M952,359.9271 C952.6417,359.9271 953.1667,360.4521 953.1667,361.0938 C953.1667,361.7354 952.6417,362.2604 952,362.2604 C951.3583,362.2604 950.8333,361.7354 950.8333,361.0938 C950.8333,360.4521 951.3583,359.9271 952,359.9271 " fill="#B8861B" style="stroke:;stroke-width:0.0;stroke-dasharray:;"/><text fill="#000000" font-family="sans-serif" font-size="14" font-weight="bold" lengthAdjust="spacing" textLength="79.4883" x="960.2074" y="368.292">followerId</text><text fill="#000000" font-family="sans-serif" font-size="14" lengthAdjust="spacing" textLength="58.1328" x="1039.6956" y="368.292">: SERIAL</text><path d="M948.5,375.0573 C946.5633,375.0573 945,376.6206 945,378.5573 C945,380.494 946.5633,382.0573 948.5,382.0573 C950.4367,382.0573 952,380.494 952,378.5573 C952,376.6206 950.4367,375.0573 948.5,375.0573 " fill="#EFEFEF" style="stroke:;stroke-width:0.0;stroke-dasharray:;"/><text fill="#000000" font-family="sans-serif" font-size="14" lengthAdjust="spacing" textLength="259.0547" x="959.7835" y="384.5889">followedTime: TIMESTAMP NOT NULL</text><path d="M948.5,391.3542 C946.5633,391.3542 945,392.9175 945,394.8542 C945,396.7908 946.5633,398.3542 948.5,398.3542 C950.4367,398.3542 952,396.7908 952,394.8542 C952,392.9175 950.4367,391.3542 948.5,391.3542 " fill="#EFEFEF" style="stroke:;stroke-width:0.0;stroke-dasharray:;"/><text fill="#000000" font-family="sans-serif" font-size="14" lengthAdjust="spacing" textLength="201.5371" x="959.7835" y="400.8857">unfollowedTime: TIMESTAMP</text><line style="stroke:#181818;stroke-width:0.5;" x1="939" x2="1223.8382" y1="408.1875" y2="408.1875"/></g><!--class Like--><g id="elem_Like"><rect codeLine="57" fill="#F1F1F1" height="113.1875" id="Like" rx="2.5" ry="2.5" style="stroke:#181818;stroke-width:0.5;" width="252.5492" x="7" y="48"/><ellipse cx="114.8195" cy="64" fill="#FFFFFF" rx="11" ry="11" style="stroke:#181818;stroke-width:1.0;"/><path d="M115.6632,70.75 L113.2101,70.75 L113.2101,60.5 L110.0695,60.5 L110.0695,58.3594 L118.8039,58.3594 L118.8039,60.5 L115.6632,60.5 L115.6632,70.75 Z " fill="#000000"/><text fill="#000000" font-family="sans-serif" font-size="14" lengthAdjust="spacing" textLength="28.4102" x="135.3195" y="68.8467">Like</text><line style="stroke:#181818;stroke-width:0.5;" x1="8" x2="258.5492" y1="80" y2="80"/><path d="M20.4167,87.4635 C18.8067,87.4635 17.5,88.7702 17.5,90.3802 C17.5,90.5669 17.5,90.7535 17.535,90.9285 L14,94.4635 L14,96.7969 L17.5,96.7969 L17.5,94.4635 L19.8333,94.4635 L19.8333,93.2969 L19.8683,93.2619 C20.0433,93.2969 20.23,93.2969 20.4167,93.2969 C22.0267,93.2969 23.3333,91.9902 23.3333,90.3802 C23.3333,88.7702 22.0267,87.4635 20.4167,87.4635 M21,88.6302 C21.6417,88.6302 22.1667,89.1552 22.1667,89.7969 C22.1667,90.4385 21.6417,90.9635 21,90.9635 C20.3583,90.9635 19.8333,90.4385 19.8333,89.7969 C19.8333,89.1552 20.3583,88.6302 21,88.6302 " fill="#B8861B" style="stroke:;stroke-width:0.0;stroke-dasharray:;"/><text fill="#000000" font-family="sans-serif" font-size="14" font-weight="bold" lengthAdjust="spacing" textLength="60.5391" x="29.2074" y="96.9951">tweetId</text><text fill="#000000" font-family="sans-serif" font-size="14" lengthAdjust="spacing" textLength="44.5703" x="89.7464" y="96.9951">: UUID</text><path d="M20.4167,103.7604 C18.8067,103.7604 17.5,105.0671 17.5,106.6771 C17.5,106.8638 17.5,107.0504 17.535,107.2254 L14,110.7604 L14,113.0937 L17.5,113.0937 L17.5,110.7604 L19.8333,110.7604 L19.8333,109.5937 L19.8683,109.5587 C20.0433,109.5937 20.23,109.5937 20.4167,109.5937 C22.0267,109.5937 23.3333,108.2871 23.3333,106.6771 C23.3333,105.0671 22.0267,103.7604 20.4167,103.7604 M21,104.9271 C21.6417,104.9271 22.1667,105.4521 22.1667,106.0937 C22.1667,106.7354 21.6417,107.2604 21,107.2604 C20.3583,107.2604 19.8333,106.7354 19.8333,106.0937 C19.8333,105.4521 20.3583,104.9271 21,104.9271 " fill="#B8861B" style="stroke:;stroke-width:0.0;stroke-dasharray:;"/><text fill="#000000" font-family="sans-serif" font-size="14" font-weight="bold" lengthAdjust="spacing" textLength="49.9297" x="29.2074" y="113.292">userId</text><text fill="#000000" font-family="sans-serif" font-size="14" lengthAdjust="spacing" textLength="58.1328" x="79.137" y="113.292">: SERIAL</text><path d="M17.5,120.0573 C15.5633,120.0573 14,121.6206 14,123.5573 C14,125.494 15.5633,127.0573 17.5,127.0573 C19.4367,127.0573 21,125.494 21,123.5573 C21,121.6206 19.4367,120.0573 17.5,120.0573 " fill="#EFEFEF" style="stroke:;stroke-width:0.0;stroke-dasharray:;"/><text fill="#000000" font-family="sans-serif" font-size="14" lengthAdjust="spacing" textLength="224.7656" x="28.7835" y="129.5889">likeTime: TIMESTAMP NOT NULL</text><path d="M17.5,136.3542 C15.5633,136.3542 14,137.9175 14,139.8542 C14,141.7908 15.5633,143.3542 17.5,143.3542 C19.4367,143.3542 21,141.7908 21,139.8542 C21,137.9175 19.4367,136.3542 17.5,136.3542 " fill="#EFEFEF" style="stroke:;stroke-width:0.0;stroke-dasharray:;"/><text fill="#000000" font-family="sans-serif" font-size="14" lengthAdjust="spacing" textLength="167.248" x="28.7835" y="145.8857">unlikeTime: TIMESTAMP</text><line style="stroke:#181818;stroke-width:0.5;" x1="8" x2="258.5492" y1="153.1875" y2="153.1875"/></g><!--class Report--><g id="elem_Report"><rect codeLine="64" fill="#F1F1F1" height="113.1875" id="Report" rx="2.5" ry="2.5" style="stroke:#181818;stroke-width:0.5;" width="313.3138" x="987" y="48"/><ellipse cx="1115.8879" cy="64" fill="#FFFFFF" rx="11" ry="11" style="stroke:#181818;stroke-width:1.0;"/><path d="M1116.7316,70.75 L1114.2785,70.75 L1114.2785,60.5 L1111.1379,60.5 L1111.1379,58.3594 L1119.8722,58.3594 L1119.8722,60.5 L1116.7316,60.5 L1116.7316,70.75 Z " fill="#000000"/><text fill="#000000" font-family="sans-serif" font-size="14" lengthAdjust="spacing" textLength="47.0381" x="1136.3879" y="68.8467">Report</text><line style="stroke:#181818;stroke-width:0.5;" x1="988" x2="1299.3138" y1="80" y2="80"/><path d="M1000.4167,87.4635 C998.8067,87.4635 997.5,88.7702 997.5,90.3802 C997.5,90.5669 997.5,90.7535 997.535,90.9285 L994,94.4635 L994,96.7969 L997.5,96.7969 L997.5,94.4635 L999.8333,94.4635 L999.8333,93.2969 L999.8683,93.2619 C1000.0433,93.2969 1000.23,93.2969 1000.4167,93.2969 C1002.0267,93.2969 1003.3333,91.9902 1003.3333,90.3802 C1003.3333,88.7702 1002.0267,87.4635 1000.4167,87.4635 M1001,88.6302 C1001.6417,88.6302 1002.1667,89.1552 1002.1667,89.7969 C1002.1667,90.4385 1001.6417,90.9635 1001,90.9635 C1000.3583,90.9635 999.8333,90.4385 999.8333,89.7969 C999.8333,89.1552 1000.3583,88.6302 1001,88.6302 " fill="#B8861B" style="stroke:;stroke-width:0.0;stroke-dasharray:;"/><text fill="#000000" font-family="sans-serif" font-size="14" font-weight="bold" lengthAdjust="spacing" textLength="60.5391" x="1009.2074" y="96.9951">tweetId</text><text fill="#000000" font-family="sans-serif" font-size="14" lengthAdjust="spacing" textLength="44.5703" x="1069.7464" y="96.9951">: UUID</text><path d="M1000.4167,103.7604 C998.8067,103.7604 997.5,105.0671 997.5,106.6771 C997.5,106.8638 997.5,107.0504 997.535,107.2254 L994,110.7604 L994,113.0937 L997.5,113.0937 L997.5,110.7604 L999.8333,110.7604 L999.8333,109.5937 L999.8683,109.5587 C1000.0433,109.5937 1000.23,109.5937 1000.4167,109.5937 C1002.0267,109.5937 1003.3333,108.2871 1003.3333,106.6771 C1003.3333,105.0671 1002.0267,103.7604 1000.4167,103.7604 M1001,104.9271 C1001.6417,104.9271 1002.1667,105.4521 1002.1667,106.0937 C1002.1667,106.7354 1001.6417,107.2604 1001,107.2604 C1000.3583,107.2604 999.8333,106.7354 999.8333,106.0937 C999.8333,105.4521 1000.3583,104.9271 1001,104.9271 " fill="#B8861B" style="stroke:;stroke-width:0.0;stroke-dasharray:;"/><text fill="#000000" font-family="sans-serif" font-size="14" font-weight="bold" lengthAdjust="spacing" textLength="81.2656" x="1009.2074" y="113.292">reporterId</text><text fill="#000000" font-family="sans-serif" font-size="14" lengthAdjust="spacing" textLength="58.1328" x="1090.473" y="113.292">: SERIAL</text><path d="M997.5,120.0573 C995.5633,120.0573 994,121.6206 994,123.5573 C994,125.494 995.5633,127.0573 997.5,127.0573 C999.4367,127.0573 1001,125.494 1001,123.5573 C1001,121.6206 999.4367,120.0573 997.5,120.0573 " fill="#EFEFEF" style="stroke:;stroke-width:0.0;stroke-dasharray:;"/><text fill="#000000" font-family="sans-serif" font-size="14" lengthAdjust="spacing" textLength="243.332" x="1008.7835" y="129.5889">reportTime: TIMESTAMP NOT NULL</text><path d="M997.5,136.3542 C995.5633,136.3542 994,137.9175 994,139.8542 C994,141.7908 995.5633,143.3542 997.5,143.3542 C999.4367,143.3542 1001,141.7908 1001,139.8542 C1001,137.9175 999.4367,136.3542 997.5,136.3542 " fill="#EFEFEF" style="stroke:;stroke-width:0.0;stroke-dasharray:;"/><text fill="#000000" font-family="sans-serif" font-size="14" lengthAdjust="spacing" textLength="285.5303" x="1008.7835" y="145.8857">reason: CHARACTER VARYING NOT NULL</text><line style="stroke:#181818;stroke-width:0.5;" x1="988" x2="1299.3138" y1="153.1875" y2="153.1875"/></g><!--class URL--><g id="elem_URL"><rect codeLine="74" fill="#F1F1F1" height="96.8906" id="URL" rx="2.5" ry="2.5" style="stroke:#181818;stroke-width:0.5;" width="284.1517" x="667.5" y="56"/><ellipse cx="791.4386" cy="72" fill="#FFFFFF" rx="11" ry="11" style="stroke:#181818;stroke-width:1.0;"/><path d="M792.2824,78.75 L789.8293,78.75 L789.8293,68.5 L786.6886,68.5 L786.6886,66.3594 L795.423,66.3594 L795.423,68.5 L792.2824,68.5 L792.2824,78.75 Z " fill="#000000"/><text fill="#000000" font-family="sans-serif" font-size="14" lengthAdjust="spacing" textLength="27.7744" x="811.9386" y="76.8467">URL</text><line style="stroke:#181818;stroke-width:0.5;" x1="668.5" x2="950.6517" y1="88" y2="88"/><path d="M680.9167,95.4635 C679.3067,95.4635 678,96.7702 678,98.3802 C678,98.5669 678,98.7535 678.035,98.9285 L674.5,102.4635 L674.5,104.7969 L678,104.7969 L678,102.4635 L680.3333,102.4635 L680.3333,101.2969 L680.3683,101.2619 C680.5433,101.2969 680.73,101.2969 680.9167,101.2969 C682.5267,101.2969 683.8333,99.9902 683.8333,98.3802 C683.8333,96.7702 682.5267,95.4635 680.9167,95.4635 M681.5,96.6302 C682.1417,96.6302 682.6667,97.1552 682.6667,97.7969 C682.6667,98.4385 682.1417,98.9635 681.5,98.9635 C680.8583,98.9635 680.3333,98.4385 680.3333,97.7969 C680.3333,97.1552 680.8583,96.6302 681.5,96.6302 " fill="#B8861B" style="stroke:;stroke-width:0.0;stroke-dasharray:;"/><text fill="#000000" font-family="sans-serif" font-size="14" font-weight="bold" lengthAdjust="spacing" textLength="60.5391" x="689.7074" y="104.9951">tweetId</text><text fill="#000000" font-family="sans-serif" font-size="14" lengthAdjust="spacing" textLength="49.3076" x="750.2464" y="104.9951">: LONG</text><path d="M680.9167,111.7604 C679.3067,111.7604 678,113.0671 678,114.6771 C678,114.8638 678,115.0504 678.035,115.2254 L674.5,118.7604 L674.5,121.0937 L678,121.0937 L678,118.7604 L680.3333,118.7604 L680.3333,117.5937 L680.3683,117.5587 C680.5433,117.5937 680.73,117.5937 680.9167,117.5937 C682.5267,117.5937 683.8333,116.2871 683.8333,114.6771 C683.8333,113.0671 682.5267,111.7604 680.9167,111.7604 M681.5,112.9271 C682.1417,112.9271 682.6667,113.4521 682.6667,114.0937 C682.6667,114.7354 682.1417,115.2604 681.5,115.2604 C680.8583,115.2604 680.3333,114.7354 680.3333,114.0937 C680.3333,113.4521 680.8583,112.9271 681.5,112.9271 " fill="#AAAAAA" style="stroke:;stroke-width:0.0;stroke-dasharray:;"/><text fill="#000000" font-family="sans-serif" font-size="14" lengthAdjust="spacing" textLength="211.3193" x="689.2835" y="121.292">tweetId: UUID «FK» NOT NULL</text><path d="M678,128.0573 C676.0633,128.0573 674.5,129.6206 674.5,131.5573 C674.5,133.494 676.0633,135.0573 678,135.0573 C679.9367,135.0573 681.5,133.494 681.5,131.5573 C681.5,129.6206 679.9367,128.0573 678,128.0573 " fill="#EFEFEF" style="stroke:;stroke-width:0.0;stroke-dasharray:;"/><text fill="#000000" font-family="sans-serif" font-size="14" lengthAdjust="spacing" textLength="256.3682" x="689.2835" y="137.5889">url: CHARACTER VARYING NOT NULL</text><line style="stroke:#181818;stroke-width:0.5;" x1="668.5" x2="950.6517" y1="144.8906" y2="144.8906"/></g><!--link Tweet to UserInfo--><g id="link_Tweet_UserInfo"><path codeLine="80" d="M740.2168,462.7466 C760.1168,482.3666 769.564,491.6825 789.154,511.0025 " fill="none" id="Tweet-UserInfo" style="stroke:#181818;stroke-width:1.0;"/><line style="stroke:#181818;stroke-width:1.0;" x1="740.2168" x2="730.3075" y1="462.7466" y2="461.4026"/><line style="stroke:#181818;stroke-width:1.0;" x1="740.2168" x2="738.7325" y1="462.7466" y2="452.8574"/><line style="stroke:#181818;stroke-width:1.0;" x1="740.2168" x2="734.52" y1="462.7466" y2="457.13"/><line style="stroke:#181818;stroke-width:1.0;" x1="738.8327" x2="744.4493" y1="466.9992" y2="461.3024"/><line style="stroke:#181818;stroke-width:1.0;" x1="794.8107" x2="789.1933" y1="510.9633" y2="516.6593"/><line style="stroke:#181818;stroke-width:1.0;" x1="792.6748" x2="787.0573" y1="508.8567" y2="514.5527"/><line style="stroke:#181818;stroke-width:1.0;" x1="789.154" x2="794.85" y1="511.0025" y2="516.62"/></g><!--link Tweet to Tweet--><g id="link_Tweet_Tweet"><path codeLine="81" d="M820.7195,322.449 C841.7995,329.659 848,340.28 848,359.5 C848,378.72 841.7995,389.341 820.7195,396.551 " fill="none" id="Tweet-Tweet" style="stroke:#181818;stroke-width:1.0;"/><line style="stroke:#181818;stroke-width:1.0;" x1="820.7195" x2="811.2083" y1="322.449" y2="325.5371"/><line style="stroke:#181818;stroke-width:1.0;" x1="820.7195" x2="815.0917" y1="322.449" y2="314.1829"/><line style="stroke:#181818;stroke-width:1.0;" x1="820.7195" x2="813.15" y1="322.449" y2="319.86"/><line style="stroke:#181818;stroke-width:1.0;" x1="821.3174" x2="823.9064" y1="326.881" y2="319.3115"/><line style="stroke:#181818;stroke-width:1.0;" x1="818.2292" x2="815.6402" y1="401.6302" y2="394.0608"/><line style="stroke:#181818;stroke-width:1.0;" x1="821.0678" x2="818.4788" y1="400.6594" y2="393.0899"/><line style="stroke:#181818;stroke-width:1.0;" x1="820.7195" x2="813.15" y1="396.551" y2="399.14"/></g><!--link Media to Tweet--><g id="link_Media_Tweet"><path codeLine="82" d="M534.1569,208.8329 C547.5169,228.3629 552.5254,235.6856 565.8754,255.2156 " fill="none" id="Media-Tweet" style="stroke:#181818;stroke-width:1.0;"/><line style="stroke:#181818;stroke-width:1.0;" x1="534.1569" x2="524.6878" y1="208.8329" y2="205.6176"/><line style="stroke:#181818;stroke-width:1.0;" x1="534.1569" x2="534.5922" y1="208.8329" y2="198.8424"/><line style="stroke:#181818;stroke-width:1.0;" x1="534.1569" x2="529.64" y1="208.8329" y2="202.23"/><line style="stroke:#181818;stroke-width:1.0;" x1="531.9846" x2="538.5875" y1="212.742" y2="208.2252"/><line style="stroke:#181818;stroke-width:1.0;" x1="571.4349" x2="564.8305" y1="256.2605" y2="260.7751"/><line style="stroke:#181818;stroke-width:1.0;" x1="569.742" x2="563.1375" y1="253.7838" y2="258.2984"/><line style="stroke:#181818;stroke-width:1.0;" x1="565.8754" x2="570.39" y1="255.2156" y2="261.82"/></g><!--link Follower to UserInfo--><g id="link_Follower_UserInfo"><path codeLine="83" d="M1020.4076,422.333 C994.6076,452.073 974.2657,476.9884 948.1357,510.5384 " fill="none" id="Follower-UserInfo" style="stroke:#181818;stroke-width:1.0;"/><line style="stroke:#181818;stroke-width:1.0;" x1="1020.4076" x2="1021.1178" y1="422.333" y2="412.3582"/><line style="stroke:#181818;stroke-width:1.0;" x1="1020.4076" x2="1030.1822" y1="422.333" y2="420.2218"/><line style="stroke:#181818;stroke-width:1.0;" x1="1020.4076" x2="1025.65" y1="422.333" y2="416.29"/><line style="stroke:#181818;stroke-width:1.0;" x1="1016.0755" x2="1022.1185" y1="421.2225" y2="426.4649"/><line style="stroke:#181818;stroke-width:1.0;" x1="948.8336" x2="942.5221" y1="516.1521" y2="511.2364"/><line style="stroke:#181818;stroke-width:1.0;" x1="950.677" x2="944.3654" y1="513.7852" y2="508.8695"/><line style="stroke:#181818;stroke-width:1.0;" x1="948.1357" x2="943.22" y1="510.5384" y2="516.85"/></g><!--link Follower to UserInfo--><g id="link_Follower_UserInfo"><path codeLine="84" d="M1043.3309,422.7205 C1021.3209,452.4605 1001.666,477.158 973.666,510.708 " fill="none" id="Follower-UserInfo-1" style="stroke:#181818;stroke-width:1.0;"/><line style="stroke:#181818;stroke-width:1.0;" x1="1043.3309" x2="1043.2671" y1="422.7205" y2="412.7207"/><line style="stroke:#181818;stroke-width:1.0;" x1="1043.3309" x2="1052.9129" y1="422.7205" y2="419.8593"/><line style="stroke:#181818;stroke-width:1.0;" x1="1043.3309" x2="1048.09" y1="422.7205" y2="416.29"/><line style="stroke:#181818;stroke-width:1.0;" x1="1038.9259" x2="1045.3564" y1="421.9486" y2="426.7076"/><line style="stroke:#181818;stroke-width:1.0;" x1="974.174" x2="968.032" y1="516.342" y2="511.216"/><line style="stroke:#181818;stroke-width:1.0;" x1="976.0962" x2="969.9542" y1="514.0387" y2="508.9127"/><line style="stroke:#181818;stroke-width:1.0;" x1="973.666" x2="968.54" y1="510.708" y2="516.85"/></g><!--link Like to Tweet--><g id="link_Like_Tweet"><path codeLine="85" d="M217.7801,165.6571 C238.8501,179.7471 255.32,189.86 277.5,202 C335.21,233.58 393.2127,260.4983 452.2027,285.6883 " fill="none" id="Like-Tweet" style="stroke:#181818;stroke-width:1.0;"/><line style="stroke:#181818;stroke-width:1.0;" x1="217.7801" x2="207.7947" y1="165.6571" y2="166.1976"/><line style="stroke:#181818;stroke-width:1.0;" x1="217.7801" x2="214.4653" y1="165.6571" y2="156.2224"/><line style="stroke:#181818;stroke-width:1.0;" x1="217.7801" x2="211.13" y1="165.6571" y2="161.21"/><line style="stroke:#181818;stroke-width:1.0;" x1="217.2191" x2="221.6661" y1="170.0939" y2="163.4438"/><line style="stroke:#181818;stroke-width:1.0;" x1="457.4522" x2="454.3105" y1="283.5805" y2="290.9378"/><line style="stroke:#181818;stroke-width:1.0;" x1="454.6932" x2="451.5515" y1="282.4024" y2="289.7596"/><line style="stroke:#181818;stroke-width:1.0;" x1="452.2027" x2="459.56" y1="285.6883" y2="288.83"/></g><!--link Like to UserInfo--><g id="link_Like_UserInfo"><path codeLine="86" d="M172.9546,167.885 C224.1246,244.965 322.03,376.97 442.5,457 C517.07,506.54 602.0341,538.7151 683.2241,561.7651 " fill="none" id="Like-UserInfo" style="stroke:#181818;stroke-width:1.0;"/><line style="stroke:#181818;stroke-width:1.0;" x1="172.9546" x2="163.5312" y1="167.885" y2="164.5385"/><line style="stroke:#181818;stroke-width:1.0;" x1="172.9546" x2="173.5288" y1="167.885" y2="157.9015"/><line style="stroke:#181818;stroke-width:1.0;" x1="172.9546" x2="168.53" y1="167.885" y2="161.22"/><line style="stroke:#181818;stroke-width:1.0;" x1="170.7283" x2="177.3933" y1="171.7636" y2="167.339"/><line style="stroke:#181818;stroke-width:1.0;" x1="688.1645" x2="685.9796" y1="559.0096" y2="566.7055"/><line style="stroke:#181818;stroke-width:1.0;" x1="685.2786" x2="683.0937" y1="558.1903" y2="565.8862"/><line style="stroke:#181818;stroke-width:1.0;" x1="683.2241" x2="690.92" y1="561.7651" y2="563.95"/></g><!--link Report to Tweet--><g id="link_Report_Tweet"><path codeLine="87" d="M1038.0502,165.0651 C1013.2302,178.7151 993.53,189.22 968.5,202 C918.56,227.51 870.9686,250.5637 820.4986,274.3137 " fill="none" id="Report-Tweet" style="stroke:#181818;stroke-width:1.0;"/><line style="stroke:#181818;stroke-width:1.0;" x1="1038.0502" x2="1042.1687" y1="165.0651" y2="155.9526"/><line style="stroke:#181818;stroke-width:1.0;" x1="1038.0502" x2="1047.9513" y1="165.0651" y2="166.4674"/><line style="stroke:#181818;stroke-width:1.0;" x1="1038.0502" x2="1045.06" y1="165.0651" y2="161.21"/><line style="stroke:#181818;stroke-width:1.0;" x1="1034.3701" x2="1038.2253" y1="162.524" y2="169.5338"/><line style="stroke:#181818;stroke-width:1.0;" x1="818.5824" x2="815.1761" y1="279.6361" y2="272.3976"/><line style="stroke:#181818;stroke-width:1.0;" x1="821.2969" x2="817.8906" y1="278.3588" y2="271.1202"/><line style="stroke:#181818;stroke-width:1.0;" x1="820.4986" x2="813.26" y1="274.3137" y2="277.72"/></g><!--link Report to UserInfo--><g id="link_Report_UserInfo"><path codeLine="88" d="M1020.0126,165.2545 C979.7326,190.3845 945.32,219.81 920.5,262 C875.04,339.28 870.0125,435.532 874.0225,508.742 " fill="none" id="Report-UserInfo" style="stroke:#181818;stroke-width:1.0;"/><line style="stroke:#181818;stroke-width:1.0;" x1="1020.0126" x2="1023.6241" y1="165.2545" y2="155.9295"/><line style="stroke:#181818;stroke-width:1.0;" x1="1020.0126" x2="1029.9759" y1="165.2545" y2="166.1105"/><line style="stroke:#181818;stroke-width:1.0;" x1="1020.0126" x2="1026.8" y1="165.2545" y2="161.02"/><line style="stroke:#181818;stroke-width:1.0;" x1="1016.1985" x2="1020.433" y1="162.9195" y2="169.7069"/><line style="stroke:#181818;stroke-width:1.0;" x1="878.2352" x2="870.2472" y1="512.5172" y2="512.9548"/><line style="stroke:#181818;stroke-width:1.0;" x1="878.0712" x2="870.0831" y1="509.5217" y2="509.9592"/><line style="stroke:#181818;stroke-width:1.0;" x1="874.0225" x2="874.46" y1="508.742" y2="516.73"/></g><!--link URL to Tweet--><g id="link_URL_Tweet"><path codeLine="89" d="M772.4436,159.6932 C751.4936,190.3232 732.5554,218.0262 707.0854,255.2762 " fill="none" id="URL-Tweet" style="stroke:#181818;stroke-width:1.0;"/><line style="stroke:#181818;stroke-width:1.0;" x1="772.4436" x2="772.0076" y1="159.6932" y2="149.7027"/><line style="stroke:#181818;stroke-width:1.0;" x1="772.4436" x2="781.9124" y1="159.6932" y2="156.4773"/><line style="stroke:#181818;stroke-width:1.0;" x1="772.4436" x2="776.96" y1="159.6932" y2="153.09"/><line style="stroke:#181818;stroke-width:1.0;" x1="768.0129" x2="774.6161" y1="159.0858" y2="163.6022"/><line style="stroke:#181818;stroke-width:1.0;" x1="708.1296" x2="701.5258" y1="260.8358" y2="256.3204"/><line style="stroke:#181818;stroke-width:1.0;" x1="709.8229" x2="703.2191" y1="258.3594" y2="253.8439"/><line style="stroke:#181818;stroke-width:1.0;" x1="707.0854" x2="702.57" y1="255.2762" y2="261.88"/></g><!--SRC=[jLPXRviw5FtEhxZJaruJQPHEUvhQBej44xgXqMHAoBHzcXou3By2ZcoJXBtklp_Z4EQijCtsz8WK2Tzphe_FzRLnJgnmGwL43eBcgmmX9f8iYK38MOoPTSrP3lDAICnXZ89-BS0l57nDSNEv7zcdw7tgFuTtfBg5ESrPKP42KYbNuj9nSenfcPz6B7V-9cl2SKq5bHWxATlOajcnpcJBNIQR5ZQnXPvs7wBxQUsByulpbz6hlowYwCmQiLgsoWJB2iOqfah7c1K2lradZcKzYp6X1SAAqvpmwiijLhrj7mRBuI1Y6UENVopFpr-zKAz_gj1muEZH8Mm7pdBOiXF6KMbesGsLwESUjQMfWJ8lJ0OczKynQZ-8pJ5YFEwYgY9aM3Ena5HMi8N107hXSzYaohO-38UMjSF0GY3tYuH17_wnu62bKAeOZQ5_2NDlvhi1A42ZIiSc9CSwEdhdpjnHwCtWeplxx4_UmcGQmcGH10Q18yb-YI0aaQMeuLVJQU2vanO4jWrk9EaQWN6ObsA5HOonmMKoHVw1iuHcE9TbadJEQX0Y9KzILeHqfp3qRxnvwDvyw5Isd_4UsW2f_LzlhFi9hU-j-U46KNOvB-k0hwrVBFnnRRovYxJxlbcPmU3w_N1eYZt0Srmn8SCVMGzefWzCDKeXjMBlKzYv-dfJvUflhhQVNjlCKwdQueozQtSHX71sUcQmzFp7cAjE3ffKZpdxd-nNxZidbXlKso1qhmAlAO8x7iDeEfc7CzUVX7iVelHMRHjlz1vwKKhubmoBhpBjDL7LcM_WnPbw-g_rUT6KzQPkpwwowhvzfAm_b_r-LLkNrBfajVg5RgBVD5Wjpdkhe1qGe_PNdqFFxSBWbYOjuFyfxoELsnjypRACRTHPVUIXTG186hBP2CRqJJW-QZLbyI3Sa1lGMpoYoxjMye38J6KyKc0dr10tKqS3bxyXZslYWn9tuQD4ghDNiEA9hRphswp-Kj3AzyBLdPyscGJ4L4ISBjLzhYvyrdu_f9YjJhVw-o7XZY29wXsR5B4jC2gvkY6TdLgRB4kXhXLxYIbPKyRDhbxCWYTS2gRwJldDbYvvzgG5rkwm-dvdstTtxTrzEAfVhDqPT33KTitFz0S3UkCUv317MbXJYGFWuLWBhKqqSVy2]--></g></svg>