<?xml version="1.0" encoding="UTF-8" standalone="no"?><svg xmlns="http://www.w3.org/2000/svg" xmlns:xlink="http://www.w3.org/1999/xlink" contentStyleType="text/css" height="252px" preserveAspectRatio="none" style="width:680px;height:252px;background:#FFFFFF;" version="1.1" viewBox="0 0 680 252" width="680px" zoomAndPan="magnify"><defs/><g><!--MD5=[3f0ef310aaa84a542276992c5216544d]
class Car--><g id="elem_Car"><rect codeLine="2" fill="#F1F1F1" height="113.1875" id="Car" rx="2.5" ry="2.5" style="stroke:#181818;stroke-width:0.5;" width="191" x="314.5" y="7"/><ellipse cx="394.25" cy="23" fill="#ADD1B2" rx="11" ry="11" style="stroke:#181818;stroke-width:1.0;"/><path d="M397.2188,28.6406 Q396.6406,28.9375 396,29.0781 Q395.3594,29.2344 394.6563,29.2344 Q392.1563,29.2344 390.8281,27.5938 Q389.5156,25.9375 389.5156,22.8125 Q389.5156,19.6875 390.8281,18.0313 Q392.1563,16.375 394.6563,16.375 Q395.3594,16.375 396,16.5313 Q396.6563,16.6875 397.2188,16.9844 L397.2188,19.7031 Q396.5938,19.125 396,18.8594 Q395.4063,18.5781 394.7813,18.5781 Q393.4375,18.5781 392.75,19.6563 Q392.0625,20.7188 392.0625,22.8125 Q392.0625,24.9063 392.75,25.9844 Q393.4375,27.0469 394.7813,27.0469 Q395.4063,27.0469 396,26.7813 Q396.5938,26.5 397.2188,25.9219 L397.2188,28.6406 Z " fill="#000000"/><text fill="#000000" font-family="sans-serif" font-size="14" lengthAdjust="spacing" textLength="23" x="414.75" y="27.8467">Car</text><line style="stroke:#181818;stroke-width:0.5;" x1="315.5" x2="504.5" y1="39" y2="39"/><text fill="#000000" font-family="sans-serif" font-size="14" lengthAdjust="spacing" textLength="153" x="320.5" y="55.9951">serialNumber : Integer</text><text fill="#000000" font-family="sans-serif" font-size="14" lengthAdjust="spacing" textLength="93" x="320.5" y="72.292">brand : String</text><text fill="#000000" font-family="sans-serif" font-size="14" lengthAdjust="spacing" textLength="96" x="320.5" y="88.5889">model : String</text><text fill="#000000" font-family="sans-serif" font-size="14" lengthAdjust="spacing" textLength="179" x="320.5" y="104.8857">manufacturingTime : Date</text><line style="stroke:#181818;stroke-width:0.5;" x1="315.5" x2="504.5" y1="112.1875" y2="112.1875"/></g><!--MD5=[eee9d396a8aca12c6c152931e8dc1ab6]
class Driver--><g id="elem_Driver"><rect codeLine="9" fill="#F1F1F1" height="96.8906" id="Driver" rx="2.5" ry="2.5" style="stroke:#181818;stroke-width:0.5;" width="220" x="7" y="15"/><ellipse cx="92.75" cy="31" fill="#ADD1B2" rx="11" ry="11" style="stroke:#181818;stroke-width:1.0;"/><path d="M95.7188,36.6406 Q95.1406,36.9375 94.5,37.0781 Q93.8594,37.2344 93.1563,37.2344 Q90.6563,37.2344 89.3281,35.5938 Q88.0156,33.9375 88.0156,30.8125 Q88.0156,27.6875 89.3281,26.0313 Q90.6563,24.375 93.1563,24.375 Q93.8594,24.375 94.5,24.5313 Q95.1563,24.6875 95.7188,24.9844 L95.7188,27.7031 Q95.0938,27.125 94.5,26.8594 Q93.9063,26.5781 93.2813,26.5781 Q91.9375,26.5781 91.25,27.6563 Q90.5625,28.7188 90.5625,30.8125 Q90.5625,32.9063 91.25,33.9844 Q91.9375,35.0469 93.2813,35.0469 Q93.9063,35.0469 94.5,34.7813 Q95.0938,34.5 95.7188,33.9219 L95.7188,36.6406 Z " fill="#000000"/><text fill="#000000" font-family="sans-serif" font-size="14" lengthAdjust="spacing" textLength="40" x="113.25" y="35.8467">Driver</text><line style="stroke:#181818;stroke-width:0.5;" x1="8" x2="226" y1="47" y2="47"/><text fill="#000000" font-family="sans-serif" font-size="14" lengthAdjust="spacing" textLength="208" x="13" y="63.9951">driverLicenseNumber : Integer</text><text fill="#000000" font-family="sans-serif" font-size="14" lengthAdjust="spacing" textLength="117" x="13" y="80.292">firstname : String</text><text fill="#000000" font-family="sans-serif" font-size="14" lengthAdjust="spacing" textLength="116" x="13" y="96.5889">lastname : String</text><line style="stroke:#181818;stroke-width:0.5;" x1="8" x2="226" y1="103.8906" y2="103.8906"/></g><!--MD5=[63ed6a0a2dfd613875880437a5e2b06e]
class Wheel--><g id="elem_Wheel"><rect fill="#F1F1F1" height="48" id="Wheel" rx="2.5" ry="2.5" style="stroke:#181818;stroke-width:0.5;" width="75" x="598.5" y="39.5"/><ellipse cx="613.5" cy="55.5" fill="#ADD1B2" rx="11" ry="11" style="stroke:#181818;stroke-width:1.0;"/><path d="M616.4688,61.1406 Q615.8906,61.4375 615.25,61.5781 Q614.6094,61.7344 613.9063,61.7344 Q611.4063,61.7344 610.0781,60.0938 Q608.7656,58.4375 608.7656,55.3125 Q608.7656,52.1875 610.0781,50.5313 Q611.4063,48.875 613.9063,48.875 Q614.6094,48.875 615.25,49.0313 Q615.9063,49.1875 616.4688,49.4844 L616.4688,52.2031 Q615.8438,51.625 615.25,51.3594 Q614.6563,51.0781 614.0313,51.0781 Q612.6875,51.0781 612,52.1563 Q611.3125,53.2188 611.3125,55.3125 Q611.3125,57.4063 612,58.4844 Q612.6875,59.5469 614.0313,59.5469 Q614.6563,59.5469 615.25,59.2813 Q615.8438,59 616.4688,58.4219 L616.4688,61.1406 Z " fill="#000000"/><text fill="#000000" font-family="sans-serif" font-size="14" lengthAdjust="spacing" textLength="43" x="627.5" y="60.3467">Wheel</text><line style="stroke:#181818;stroke-width:0.5;" x1="599.5" x2="672.5" y1="71.5" y2="71.5"/><line style="stroke:#181818;stroke-width:0.5;" x1="599.5" x2="672.5" y1="79.5" y2="79.5"/></g><!--MD5=[09ce52be0ee7de43c61b6e2d59bf108b]
class Person--><g id="elem_Person"><rect fill="#F1F1F1" height="48" id="Person" rx="2.5" ry="2.5" style="stroke:#181818;stroke-width:0.5;" width="81" x="369.5" y="197"/><ellipse cx="384.5" cy="213" fill="#ADD1B2" rx="11" ry="11" style="stroke:#181818;stroke-width:1.0;"/><path d="M387.4688,218.6406 Q386.8906,218.9375 386.25,219.0781 Q385.6094,219.2344 384.9063,219.2344 Q382.4063,219.2344 381.0781,217.5938 Q379.7656,215.9375 379.7656,212.8125 Q379.7656,209.6875 381.0781,208.0313 Q382.4063,206.375 384.9063,206.375 Q385.6094,206.375 386.25,206.5313 Q386.9063,206.6875 387.4688,206.9844 L387.4688,209.7031 Q386.8438,209.125 386.25,208.8594 Q385.6563,208.5781 385.0313,208.5781 Q383.6875,208.5781 383,209.6563 Q382.3125,210.7188 382.3125,212.8125 Q382.3125,214.9063 383,215.9844 Q383.6875,217.0469 385.0313,217.0469 Q385.6563,217.0469 386.25,216.7813 Q386.8438,216.5 387.4688,215.9219 L387.4688,218.6406 Z " fill="#000000"/><text fill="#000000" font-family="sans-serif" font-size="14" lengthAdjust="spacing" textLength="49" x="398.5" y="217.8467">Person</text><line style="stroke:#181818;stroke-width:0.5;" x1="370.5" x2="449.5" y1="229" y2="229"/><line style="stroke:#181818;stroke-width:0.5;" x1="370.5" x2="449.5" y1="237" y2="237"/></g><!--MD5=[85884a73f707af3ae230d559cad4fc2c]
link Driver to Car--><g id="link_Driver_Car"><path codeLine="15" d="M227.35,63.5 C255.9,63.5 286.41,63.5 314.15,63.5 " fill="none" id="Driver-Car" style="stroke:#181818;stroke-width:1.0;"/><polygon fill="#000000" points="254.25,52.0664,245.2049,49.1275,245.2049,55.0053,254.25,52.0664" style="stroke:#000000;stroke-width:1.0;"/><text fill="#000000" font-family="sans-serif" font-size="13" lengthAdjust="spacing" textLength="38" x="258.25" y="56.5669">drives</text></g><!--MD5=[6190aadcc963d15c02367c0199cc5452]
reverse link Car to Wheel--><g id="link_Car_Wheel"><path codeLine="16" d="M518.65,63.5 C547.36,63.5 576.44,63.5 598.47,63.5 " fill="none" id="Car-backto-Wheel" style="stroke:#181818;stroke-width:1.0;"/><polygon fill="#181818" points="505.52,63.5,511.52,67.5,517.52,63.5,511.52,59.5,505.52,63.5" style="stroke:#181818;stroke-width:1.0;"/><polygon fill="#000000" points="533,52.0664,523.9549,49.1275,523.9549,55.0053,533,52.0664" style="stroke:#000000;stroke-width:1.0;"/><text fill="#000000" font-family="sans-serif" font-size="13" lengthAdjust="spacing" textLength="43" x="537" y="56.5669">have 4</text></g><!--MD5=[2800f28b8e2a8d078fc1fa2e2aa6715e]
link Car to Person--><g id="link_Car_Person"><path codeLine="17" d="M410,120.2 C410,146.52 410,176.51 410,196.69 " fill="none" id="Car-Person" style="stroke:#181818;stroke-width:1.0;"/><polygon fill="#000000" points="415,153.5664,412.0611,162.6115,417.9389,162.6115,415,153.5664" style="stroke:#000000;stroke-width:1.0;"/><text fill="#000000" font-family="sans-serif" font-size="13" lengthAdjust="spacing" textLength="32" x="424" y="163.0669">owns</text></g><!--MD5=[c4c8853275ea2f39ce2ffeccb30be30e]
@startuml car

class Car {
   serialNumber : Integer
   brand : String
   model : String
   manufacturingTime : Date
}

class Driver {
   driverLicenseNumber : Integer
   firstname : String
   lastname : String
}

Driver - Car : drives >
Car *- Wheel : have 4 >
Car - - Person : < owns

@enduml

PlantUML version 1.2022.9(Tue Sep 27 16:10:06 GMT 2022)
(GPL source distribution)
Java Runtime: OpenJDK Runtime Environment
JVM: OpenJDK 64-Bit Server VM
Default Encoding: UTF-8
Language: en
Country: US
--></g></svg>