<?xml version="1.0" encoding="UTF-8" standalone="no"?><svg xmlns="http://www.w3.org/2000/svg" xmlns:xlink="http://www.w3.org/1999/xlink" contentStyleType="text/css" height="856px" preserveAspectRatio="none" style="width:591px;height:856px;background:#FFFFFF;" version="1.1" viewBox="0 0 591 856" width="591px" zoomAndPan="magnify"><defs/><g><rect fill="none" height="26.2969" id="_title" style="stroke:none;stroke-width:1.0;" width="416" x="80.75" y="5"/><text fill="#000000" font-family="sans-serif" font-size="14" font-weight="bold" lengthAdjust="spacing" textLength="406" x="85.75" y="22.9951">Examen INFO4 BD 22-23 : Site d'écoute de musique</text><!--MD5=[ed6624c6556d5e7b1bd23032162d20b7]
class Client--><g id="elem_Client"><rect codeLine="5" fill="#F1F1F1" height="178.375" id="Client" rx="2.5" ry="2.5" style="stroke:#181818;stroke-width:0.5;" width="167" x="263" y="531.2969"/><ellipse cx="322.75" cy="547.2969" fill="#ADD1B2" rx="11" ry="11" style="stroke:#181818;stroke-width:1.0;"/><path d="M325.7188,552.9375 Q325.1406,553.2344 324.5,553.375 Q323.8594,553.5313 323.1563,553.5313 Q320.6563,553.5313 319.3281,551.8906 Q318.0156,550.2344 318.0156,547.1094 Q318.0156,543.9844 319.3281,542.3281 Q320.6563,540.6719 323.1563,540.6719 Q323.8594,540.6719 324.5,540.8281 Q325.1563,540.9844 325.7188,541.2813 L325.7188,544 Q325.0938,543.4219 324.5,543.1563 Q323.9063,542.875 323.2813,542.875 Q321.9375,542.875 321.25,543.9531 Q320.5625,545.0156 320.5625,547.1094 Q320.5625,549.2031 321.25,550.2813 Q321.9375,551.3438 323.2813,551.3438 Q323.9063,551.3438 324.5,551.0781 Q325.0938,550.7969 325.7188,550.2188 L325.7188,552.9375 Z " fill="#000000"/><text fill="#000000" font-family="sans-serif" font-size="14" lengthAdjust="spacing" textLength="39" x="343.25" y="552.1436">Client</text><line style="stroke:#181818;stroke-width:0.5;" x1="264" x2="429" y1="563.2969" y2="563.2969"/><text fill="#000000" font-family="sans-serif" font-size="14" lengthAdjust="spacing" textLength="71" x="269" y="580.292">NumClient</text><line style="stroke:#181818;stroke-width:1.0;" x1="264" x2="429" y1="587.5938" y2="587.5938"/><text fill="#000000" font-family="sans-serif" font-size="14" lengthAdjust="spacing" textLength="36" x="269" y="604.5889">Email</text><text fill="#000000" font-family="sans-serif" font-size="14" lengthAdjust="spacing" textLength="32" x="269" y="620.8857">Nom</text><text fill="#000000" font-family="sans-serif" font-size="14" lengthAdjust="spacing" textLength="54" x="269" y="637.1826">Prenom</text><text fill="#000000" font-family="sans-serif" font-size="14" lengthAdjust="spacing" textLength="88" x="269" y="653.4795">MotDePasse</text><text fill="#000000" font-family="sans-serif" font-size="14" lengthAdjust="spacing" textLength="95" x="269" y="669.7764">Coordonnées</text><text fill="#000000" font-family="sans-serif" font-size="14" lengthAdjust="spacing" textLength="155" x="269" y="686.0732">CoordonnéesBancaire</text><text fill="#000000" font-family="sans-serif" font-size="14" lengthAdjust="spacing" textLength="73" x="269" y="702.3701">TypeClient</text></g><!--MD5=[c313c5fd249458562603fdbc7729c7f9]
class Annonceur--><g id="elem_Annonceur"><rect codeLine="18" fill="#F1F1F1" height="96.8906" id="Annonceur" rx="2.5" ry="2.5" style="stroke:#181818;stroke-width:0.5;" width="120" x="464.5" y="571.7969"/><ellipse cx="484.9" cy="587.7969" fill="#ADD1B2" rx="11" ry="11" style="stroke:#181818;stroke-width:1.0;"/><path d="M487.8688,593.4375 Q487.2906,593.7344 486.65,593.875 Q486.0094,594.0313 485.3063,594.0313 Q482.8063,594.0313 481.4781,592.3906 Q480.1656,590.7344 480.1656,587.6094 Q480.1656,584.4844 481.4781,582.8281 Q482.8063,581.1719 485.3063,581.1719 Q486.0094,581.1719 486.65,581.3281 Q487.3063,581.4844 487.8688,581.7813 L487.8688,584.5 Q487.2438,583.9219 486.65,583.6563 Q486.0563,583.375 485.4313,583.375 Q484.0875,583.375 483.4,584.4531 Q482.7125,585.5156 482.7125,587.6094 Q482.7125,589.7031 483.4,590.7813 Q484.0875,591.8438 485.4313,591.8438 Q486.0563,591.8438 486.65,591.5781 Q487.2438,591.2969 487.8688,590.7188 L487.8688,593.4375 Z " fill="#000000"/><text fill="#000000" font-family="sans-serif" font-size="14" lengthAdjust="spacing" textLength="76" x="500.1" y="592.6436">Annonceur</text><line style="stroke:#181818;stroke-width:0.5;" x1="465.5" x2="583.5" y1="603.7969" y2="603.7969"/><text fill="#000000" font-family="sans-serif" font-size="14" lengthAdjust="spacing" textLength="108" x="470.5" y="620.792">NumAnnonceur</text><line style="stroke:#181818;stroke-width:1.0;" x1="465.5" x2="583.5" y1="628.0938" y2="628.0938"/><text fill="#000000" font-family="sans-serif" font-size="14" lengthAdjust="spacing" textLength="84" x="470.5" y="645.0889">NomSociété</text><text fill="#000000" font-family="sans-serif" font-size="14" lengthAdjust="spacing" textLength="95" x="470.5" y="661.3857">Coordonnées</text></g><!--MD5=[f9ef9660f44628e549271a3193d2c3b4]
class Categorie--><g id="elem_Categorie"><rect codeLine="25" fill="#F1F1F1" height="80.5938" id="Categorie" rx="2.5" ry="2.5" style="stroke:#181818;stroke-width:0.5;" width="99" x="7" y="579.7969"/><ellipse cx="22" cy="595.7969" fill="#ADD1B2" rx="11" ry="11" style="stroke:#181818;stroke-width:1.0;"/><path d="M24.9688,601.4375 Q24.3906,601.7344 23.75,601.875 Q23.1094,602.0313 22.4063,602.0313 Q19.9063,602.0313 18.5781,600.3906 Q17.2656,598.7344 17.2656,595.6094 Q17.2656,592.4844 18.5781,590.8281 Q19.9063,589.1719 22.4063,589.1719 Q23.1094,589.1719 23.75,589.3281 Q24.4063,589.4844 24.9688,589.7813 L24.9688,592.5 Q24.3438,591.9219 23.75,591.6563 Q23.1563,591.375 22.5313,591.375 Q21.1875,591.375 20.5,592.4531 Q19.8125,593.5156 19.8125,595.6094 Q19.8125,597.7031 20.5,598.7813 Q21.1875,599.8438 22.5313,599.8438 Q23.1563,599.8438 23.75,599.5781 Q24.3438,599.2969 24.9688,598.7188 L24.9688,601.4375 Z " fill="#000000"/><text fill="#000000" font-family="sans-serif" font-size="14" lengthAdjust="spacing" textLength="67" x="36" y="600.6436">Categorie</text><line style="stroke:#181818;stroke-width:0.5;" x1="8" x2="105" y1="611.7969" y2="611.7969"/><text fill="#000000" font-family="sans-serif" font-size="14" lengthAdjust="spacing" textLength="55" x="13" y="628.792">NumCat</text><line style="stroke:#181818;stroke-width:1.0;" x1="8" x2="105" y1="636.0938" y2="636.0938"/><text fill="#000000" font-family="sans-serif" font-size="14" lengthAdjust="spacing" textLength="55" x="13" y="653.0889">NomCat</text></g><!--MD5=[8e5f8b15aa8798f7dca40c869de44663]
class Artiste--><g id="elem_Artiste"><rect codeLine="31" fill="#F1F1F1" height="80.5938" id="Artiste" rx="2.5" ry="2.5" style="stroke:#181818;stroke-width:0.5;" width="88" x="140.5" y="769.2969"/><ellipse cx="160.9" cy="785.2969" fill="#ADD1B2" rx="11" ry="11" style="stroke:#181818;stroke-width:1.0;"/><path d="M163.8688,790.9375 Q163.2906,791.2344 162.65,791.375 Q162.0094,791.5313 161.3063,791.5313 Q158.8063,791.5313 157.4781,789.8906 Q156.1656,788.2344 156.1656,785.1094 Q156.1656,781.9844 157.4781,780.3281 Q158.8063,778.6719 161.3063,778.6719 Q162.0094,778.6719 162.65,778.8281 Q163.3063,778.9844 163.8688,779.2813 L163.8688,782 Q163.2438,781.4219 162.65,781.1563 Q162.0563,780.875 161.4313,780.875 Q160.0875,780.875 159.4,781.9531 Q158.7125,783.0156 158.7125,785.1094 Q158.7125,787.2031 159.4,788.2813 Q160.0875,789.3438 161.4313,789.3438 Q162.0563,789.3438 162.65,789.0781 Q163.2438,788.7969 163.8688,788.2188 L163.8688,790.9375 Z " fill="#000000"/><text fill="#000000" font-family="sans-serif" font-size="14" lengthAdjust="spacing" textLength="44" x="176.1" y="790.1436">Artiste</text><line style="stroke:#181818;stroke-width:0.5;" x1="141.5" x2="227.5" y1="801.2969" y2="801.2969"/><text fill="#000000" font-family="sans-serif" font-size="14" lengthAdjust="spacing" textLength="76" x="146.5" y="818.292">NumArtiste</text><line style="stroke:#181818;stroke-width:1.0;" x1="141.5" x2="227.5" y1="825.5938" y2="825.5938"/><text fill="#000000" font-family="sans-serif" font-size="14" lengthAdjust="spacing" textLength="76" x="146.5" y="842.5889">NomArtiste</text></g><!--MD5=[7560274dc4d8b0cfc2c0496e7291d5fc]
class Album--><g id="elem_Album"><rect codeLine="37" fill="#F1F1F1" height="96.8906" id="Album" rx="2.5" ry="2.5" style="stroke:#181818;stroke-width:0.5;" width="87" x="141" y="571.7969"/><ellipse cx="161.4" cy="587.7969" fill="#ADD1B2" rx="11" ry="11" style="stroke:#181818;stroke-width:1.0;"/><path d="M164.3688,593.4375 Q163.7906,593.7344 163.15,593.875 Q162.5094,594.0313 161.8063,594.0313 Q159.3063,594.0313 157.9781,592.3906 Q156.6656,590.7344 156.6656,587.6094 Q156.6656,584.4844 157.9781,582.8281 Q159.3063,581.1719 161.8063,581.1719 Q162.5094,581.1719 163.15,581.3281 Q163.8063,581.4844 164.3688,581.7813 L164.3688,584.5 Q163.7438,583.9219 163.15,583.6563 Q162.5563,583.375 161.9313,583.375 Q160.5875,583.375 159.9,584.4531 Q159.2125,585.5156 159.2125,587.6094 Q159.2125,589.7031 159.9,590.7813 Q160.5875,591.8438 161.9313,591.8438 Q162.5563,591.8438 163.15,591.5781 Q163.7438,591.2969 164.3688,590.7188 L164.3688,593.4375 Z " fill="#000000"/><text fill="#000000" font-family="sans-serif" font-size="14" lengthAdjust="spacing" textLength="43" x="176.6" y="592.6436">Album</text><line style="stroke:#181818;stroke-width:0.5;" x1="142" x2="227" y1="603.7969" y2="603.7969"/><text fill="#000000" font-family="sans-serif" font-size="14" lengthAdjust="spacing" textLength="75" x="147" y="620.792">NumAlbum</text><line style="stroke:#181818;stroke-width:1.0;" x1="142" x2="227" y1="628.0938" y2="628.0938"/><text fill="#000000" font-family="sans-serif" font-size="14" lengthAdjust="spacing" textLength="75" x="147" y="645.0889">NomAlbum</text><text fill="#000000" font-family="sans-serif" font-size="14" lengthAdjust="spacing" textLength="74" x="147" y="661.3857">TitreAlbum</text></g><!--MD5=[d2d03ff5ed50c867b4ca07b7d9983f8c]
class Morceau--><g id="elem_Morceau"><rect codeLine="44" fill="#F1F1F1" height="113.1875" id="Morceau" rx="2.5" ry="2.5" style="stroke:#181818;stroke-width:0.5;" width="115" x="127" y="358.2969"/><ellipse cx="152.35" cy="374.2969" fill="#ADD1B2" rx="11" ry="11" style="stroke:#181818;stroke-width:1.0;"/><path d="M155.3188,379.9375 Q154.7406,380.2344 154.1,380.375 Q153.4594,380.5313 152.7563,380.5313 Q150.2563,380.5313 148.9281,378.8906 Q147.6156,377.2344 147.6156,374.1094 Q147.6156,370.9844 148.9281,369.3281 Q150.2563,367.6719 152.7563,367.6719 Q153.4594,367.6719 154.1,367.8281 Q154.7563,367.9844 155.3188,368.2813 L155.3188,371 Q154.6938,370.4219 154.1,370.1563 Q153.5063,369.875 152.8813,369.875 Q151.5375,369.875 150.85,370.9531 Q150.1625,372.0156 150.1625,374.1094 Q150.1625,376.2031 150.85,377.2813 Q151.5375,378.3438 152.8813,378.3438 Q153.5063,378.3438 154.1,378.0781 Q154.6938,377.7969 155.3188,377.2188 L155.3188,379.9375 Z " fill="#000000"/><text fill="#000000" font-family="sans-serif" font-size="14" lengthAdjust="spacing" textLength="60" x="168.65" y="379.1436">Morceau</text><line style="stroke:#181818;stroke-width:0.5;" x1="128" x2="241" y1="390.2969" y2="390.2969"/><text fill="#000000" font-family="sans-serif" font-size="14" lengthAdjust="spacing" textLength="92" x="133" y="407.292">NumMorceau</text><line style="stroke:#181818;stroke-width:1.0;" x1="128" x2="241" y1="414.5938" y2="414.5938"/><text fill="#000000" font-family="sans-serif" font-size="14" lengthAdjust="spacing" textLength="91" x="133" y="431.5889">TitreMorceau</text><text fill="#000000" font-family="sans-serif" font-size="14" lengthAdjust="spacing" textLength="103" x="133" y="447.8857">DureeMorceau</text><text fill="#000000" font-family="sans-serif" font-size="14" lengthAdjust="spacing" textLength="51" x="133" y="464.1826">Langue</text></g><!--MD5=[2ce409087c256806e794369f9639a134]
class Playlist--><g id="elem_Playlist"><rect codeLine="52" fill="#F1F1F1" height="80.5938" id="Playlist" rx="2.5" ry="2.5" style="stroke:#181818;stroke-width:0.5;" width="90" x="301.5" y="374.2969"/><ellipse cx="321.9" cy="390.2969" fill="#ADD1B2" rx="11" ry="11" style="stroke:#181818;stroke-width:1.0;"/><path d="M324.8688,395.9375 Q324.2906,396.2344 323.65,396.375 Q323.0094,396.5313 322.3063,396.5313 Q319.8063,396.5313 318.4781,394.8906 Q317.1656,393.2344 317.1656,390.1094 Q317.1656,386.9844 318.4781,385.3281 Q319.8063,383.6719 322.3063,383.6719 Q323.0094,383.6719 323.65,383.8281 Q324.3063,383.9844 324.8688,384.2813 L324.8688,387 Q324.2438,386.4219 323.65,386.1563 Q323.0563,385.875 322.4313,385.875 Q321.0875,385.875 320.4,386.9531 Q319.7125,388.0156 319.7125,390.1094 Q319.7125,392.2031 320.4,393.2813 Q321.0875,394.3438 322.4313,394.3438 Q323.0563,394.3438 323.65,394.0781 Q324.2438,393.7969 324.8688,393.2188 L324.8688,395.9375 Z " fill="#000000"/><text fill="#000000" font-family="sans-serif" font-size="14" lengthAdjust="spacing" textLength="46" x="337.1" y="395.1436">Playlist</text><line style="stroke:#181818;stroke-width:0.5;" x1="302.5" x2="390.5" y1="406.2969" y2="406.2969"/><text fill="#000000" font-family="sans-serif" font-size="14" lengthAdjust="spacing" textLength="78" x="307.5" y="423.292">NumPlaylist</text><line style="stroke:#181818;stroke-width:1.0;" x1="302.5" x2="390.5" y1="430.5938" y2="430.5938"/><text fill="#000000" font-family="sans-serif" font-size="14" lengthAdjust="spacing" textLength="78" x="307.5" y="447.5889">NomPlaylist</text></g><!--MD5=[bbddaa5397f96cb50b23acd72aa585bb]
class PlaylistMorceau--><g id="elem_PlaylistMorceau"><rect codeLine="58" fill="#F1F1F1" height="64.2969" id="PlaylistMorceau" rx="2.5" ry="2.5" style="stroke:#181818;stroke-width:0.5;" width="138" x="168.5" y="217.7969"/><ellipse cx="183.5" cy="233.7969" fill="#ADD1B2" rx="11" ry="11" style="stroke:#181818;stroke-width:1.0;"/><path d="M186.4688,239.4375 Q185.8906,239.7344 185.25,239.875 Q184.6094,240.0313 183.9063,240.0313 Q181.4063,240.0313 180.0781,238.3906 Q178.7656,236.7344 178.7656,233.6094 Q178.7656,230.4844 180.0781,228.8281 Q181.4063,227.1719 183.9063,227.1719 Q184.6094,227.1719 185.25,227.3281 Q185.9063,227.4844 186.4688,227.7813 L186.4688,230.5 Q185.8438,229.9219 185.25,229.6563 Q184.6563,229.375 184.0313,229.375 Q182.6875,229.375 182,230.4531 Q181.3125,231.5156 181.3125,233.6094 Q181.3125,235.7031 182,236.7813 Q182.6875,237.8438 184.0313,237.8438 Q184.6563,237.8438 185.25,237.5781 Q185.8438,237.2969 186.4688,236.7188 L186.4688,239.4375 Z " fill="#000000"/><text fill="#000000" font-family="sans-serif" font-size="14" lengthAdjust="spacing" textLength="106" x="197.5" y="238.6436">PlaylistMorceau</text><line style="stroke:#181818;stroke-width:0.5;" x1="169.5" x2="305.5" y1="249.7969" y2="249.7969"/><text fill="#000000" font-family="sans-serif" font-size="14" lengthAdjust="spacing" textLength="98" x="174.5" y="266.792">OrdrePassage</text><line style="stroke:#181818;stroke-width:1.0;" x1="169.5" x2="305.5" y1="274.0938" y2="274.0938"/></g><!--MD5=[255a4415c1a2df105154570723194bdd]
class PlaylistMorceauEcoute--><g id="elem_PlaylistMorceauEcoute"><rect codeLine="63" fill="#F1F1F1" height="96.8906" id="PlaylistMorceauEcoute" rx="2.5" ry="2.5" style="stroke:#181818;stroke-width:0.5;" width="187" x="144" y="44.2969"/><ellipse cx="159" cy="60.2969" fill="#ADD1B2" rx="11" ry="11" style="stroke:#181818;stroke-width:1.0;"/><path d="M161.9688,65.9375 Q161.3906,66.2344 160.75,66.375 Q160.1094,66.5313 159.4063,66.5313 Q156.9063,66.5313 155.5781,64.8906 Q154.2656,63.2344 154.2656,60.1094 Q154.2656,56.9844 155.5781,55.3281 Q156.9063,53.6719 159.4063,53.6719 Q160.1094,53.6719 160.75,53.8281 Q161.4063,53.9844 161.9688,54.2813 L161.9688,57 Q161.3438,56.4219 160.75,56.1563 Q160.1563,55.875 159.5313,55.875 Q158.1875,55.875 157.5,56.9531 Q156.8125,58.0156 156.8125,60.1094 Q156.8125,62.2031 157.5,63.2813 Q158.1875,64.3438 159.5313,64.3438 Q160.1563,64.3438 160.75,64.0781 Q161.3438,63.7969 161.9688,63.2188 L161.9688,65.9375 Z " fill="#000000"/><text fill="#000000" font-family="sans-serif" font-size="14" lengthAdjust="spacing" textLength="155" x="173" y="65.1436">PlaylistMorceauEcoute</text><line style="stroke:#181818;stroke-width:0.5;" x1="145" x2="330" y1="76.2969" y2="76.2969"/><text fill="#000000" font-family="sans-serif" font-size="14" lengthAdjust="spacing" textLength="33" x="150" y="93.292">Date</text><line style="stroke:#181818;stroke-width:1.0;" x1="145" x2="330" y1="100.5938" y2="100.5938"/><text fill="#000000" font-family="sans-serif" font-size="14" lengthAdjust="spacing" textLength="92" x="150" y="117.5889">DureeEcoute</text><text fill="#000000" font-family="sans-serif" font-size="14" lengthAdjust="spacing" textLength="138" x="150" y="133.8857">TypeSupportEcoute</text></g><!--MD5=[54c392ad959442aa9ce73c50b241b401]
class PlaylistPubEcoute--><g id="elem_PlaylistPubEcoute"><rect codeLine="70" fill="#F1F1F1" height="96.8906" id="PlaylistPubEcoute" rx="2.5" ry="2.5" style="stroke:#181818;stroke-width:0.5;" width="154" x="380.5" y="201.2969"/><ellipse cx="395.5" cy="217.2969" fill="#ADD1B2" rx="11" ry="11" style="stroke:#181818;stroke-width:1.0;"/><path d="M398.4688,222.9375 Q397.8906,223.2344 397.25,223.375 Q396.6094,223.5313 395.9063,223.5313 Q393.4063,223.5313 392.0781,221.8906 Q390.7656,220.2344 390.7656,217.1094 Q390.7656,213.9844 392.0781,212.3281 Q393.4063,210.6719 395.9063,210.6719 Q396.6094,210.6719 397.25,210.8281 Q397.9063,210.9844 398.4688,211.2813 L398.4688,214 Q397.8438,213.4219 397.25,213.1563 Q396.6563,212.875 396.0313,212.875 Q394.6875,212.875 394,213.9531 Q393.3125,215.0156 393.3125,217.1094 Q393.3125,219.2031 394,220.2813 Q394.6875,221.3438 396.0313,221.3438 Q396.6563,221.3438 397.25,221.0781 Q397.8438,220.7969 398.4688,220.2188 L398.4688,222.9375 Z " fill="#000000"/><text fill="#000000" font-family="sans-serif" font-size="14" lengthAdjust="spacing" textLength="122" x="409.5" y="222.1436">PlaylistPubEcoute</text><line style="stroke:#181818;stroke-width:0.5;" x1="381.5" x2="533.5" y1="233.2969" y2="233.2969"/><text fill="#000000" font-family="sans-serif" font-size="14" lengthAdjust="spacing" textLength="33" x="386.5" y="250.292">Date</text><line style="stroke:#181818;stroke-width:1.0;" x1="381.5" x2="533.5" y1="257.5938" y2="257.5938"/><text fill="#000000" font-family="sans-serif" font-size="14" lengthAdjust="spacing" textLength="92" x="386.5" y="274.5889">DureeEcoute</text><text fill="#000000" font-family="sans-serif" font-size="14" lengthAdjust="spacing" textLength="138" x="386.5" y="290.8857">TypeSupportEcoute</text></g><!--MD5=[7d8a71a18370279c76b023d7172585dd]
class Publicité--><g id="elem_Publicité"><rect codeLine="77" fill="#F1F1F1" height="96.8906" id="Publicité" rx="2.5" ry="2.5" style="stroke:#181818;stroke-width:0.5;" width="90" x="452.5" y="366.2969"/><ellipse cx="467.5" cy="382.2969" fill="#ADD1B2" rx="11" ry="11" style="stroke:#181818;stroke-width:1.0;"/><path d="M470.4688,387.9375 Q469.8906,388.2344 469.25,388.375 Q468.6094,388.5313 467.9063,388.5313 Q465.4063,388.5313 464.0781,386.8906 Q462.7656,385.2344 462.7656,382.1094 Q462.7656,378.9844 464.0781,377.3281 Q465.4063,375.6719 467.9063,375.6719 Q468.6094,375.6719 469.25,375.8281 Q469.9063,375.9844 470.4688,376.2813 L470.4688,379 Q469.8438,378.4219 469.25,378.1563 Q468.6563,377.875 468.0313,377.875 Q466.6875,377.875 466,378.9531 Q465.3125,380.0156 465.3125,382.1094 Q465.3125,384.2031 466,385.2813 Q466.6875,386.3438 468.0313,386.3438 Q468.6563,386.3438 469.25,386.0781 Q469.8438,385.7969 470.4688,385.2188 L470.4688,387.9375 Z " fill="#000000"/><text fill="#000000" font-family="sans-serif" font-size="14" lengthAdjust="spacing" textLength="58" x="481.5" y="387.1436">Publicité</text><line style="stroke:#181818;stroke-width:0.5;" x1="453.5" x2="541.5" y1="398.2969" y2="398.2969"/><text fill="#000000" font-family="sans-serif" font-size="14" lengthAdjust="spacing" textLength="59" x="458.5" y="415.292">NumPub</text><line style="stroke:#181818;stroke-width:1.0;" x1="453.5" x2="541.5" y1="422.5938" y2="422.5938"/><text fill="#000000" font-family="sans-serif" font-size="14" lengthAdjust="spacing" textLength="58" x="458.5" y="439.5889">TitrePub</text><text fill="#000000" font-family="sans-serif" font-size="14" lengthAdjust="spacing" textLength="70" x="458.5" y="455.8857">DuréePub</text></g><!--MD5=[4e93583dad0d6a0bb7b7b36010a7e190]
link Album to Artiste--><g id="link_Album_Artiste"><path codeLine="84" d="M184.5,669.0969 C184.5,695.5469 184.5,728.4869 184.5,755.7369 " fill="none" id="Album-to-Artiste" style="stroke:#181818;stroke-width:1.0;"/><polygon fill="#181818" points="184.5,768.9969,188.5,762.9969,184.5,756.9969,180.5,762.9969,184.5,768.9969" style="stroke:#181818;stroke-width:1.0;"/></g><!--MD5=[30118ea2090277fc737c2621f24dd95c]
link Playlist to Client--><g id="link_Playlist_Client"><path codeLine="85" d="M346.5,455.5169 C346.5,473.5969 346.5,495.9069 346.5,518.1769 " fill="none" id="Playlist-to-Client" style="stroke:#181818;stroke-width:1.0;"/><polygon fill="#181818" points="346.5,531.2469,350.5,525.2469,346.5,519.2469,342.5,525.2469,346.5,531.2469" style="stroke:#181818;stroke-width:1.0;"/></g><!--MD5=[8b04d3fa61c707e1944b875e8afa55d8]
link Publicité to Annonceur--><g id="link_Publicité_Annonceur"><path codeLine="86" d="M503.83,463.5069 C507.59,491.8569 512.4,528.0869 516.43,558.4669 " fill="none" id="Publicité-to-Annonceur" style="stroke:#181818;stroke-width:1.0;"/><polygon fill="#181818" points="518.16,571.5369,521.3338,565.0618,516.5775,559.6417,513.4037,566.1168,518.16,571.5369" style="stroke:#181818;stroke-width:1.0;"/></g><!--MD5=[8fe0e91d6f92841c5bc90cb05ddb93ad]
link Morceau to Album--><g id="link_Morceau_Album"><path codeLine="87" d="M184.5,471.4069 C184.5,498.4069 184.5,530.9069 184.5,558.5569 " fill="none" id="Morceau-to-Album" style="stroke:#181818;stroke-width:1.0;"/><polygon fill="#181818" points="184.5,571.6969,188.5,565.6969,184.5,559.6969,180.5,565.6969,184.5,571.6969" style="stroke:#181818;stroke-width:1.0;"/></g><!--MD5=[82c2d62d52bc1b2c1548ad0694cd005f]
link Morceau to Categorie--><g id="link_Morceau_Categorie"><path codeLine="88" d="M149.52,471.4069 C130.51,501.6369 107.16,538.7669 88.61,568.2569 " fill="none" id="Morceau-to-Categorie" style="stroke:#181818;stroke-width:1.0;"/><polygon fill="none" points="81.49,579.5569,88.0678,576.6019,87.8701,569.3935,81.2923,572.3485,81.49,579.5569" style="stroke:#181818;stroke-width:1.0;"/></g><!--MD5=[c7e95ca9f5c86312ebea7d12091cc266]
link PlaylistMorceau to Morceau--><g id="link_PlaylistMorceau_Morceau"><path codeLine="89" d="M227.41,281.8369 C221.53,299.9169 213.88,323.4469 206.67,345.6269 " fill="none" id="PlaylistMorceau-to-Morceau" style="stroke:#181818;stroke-width:1.0;"/><polygon fill="#181818" points="202.6,358.1269,208.2581,353.6563,206.3075,346.714,200.6495,351.1846,202.6,358.1269" style="stroke:#181818;stroke-width:1.0;"/></g><!--MD5=[c5821bbdcafe30294d2669b8777e0eef]
link PlaylistMorceau to Playlist--><g id="link_PlaylistMorceau_Playlist"><path codeLine="90" d="M258.26,281.8369 C273.61,304.7969 294.84,336.5469 312.64,363.1569 " fill="none" id="PlaylistMorceau-to-Playlist" style="stroke:#181818;stroke-width:1.0;"/><polygon fill="#181818" points="320.03,374.2069,320.0168,366.9958,313.3553,364.2345,313.3685,371.4456,320.03,374.2069" style="stroke:#181818;stroke-width:1.0;"/></g><!--MD5=[3ee442a2332dfb6362e210e319c9eb65]
link PlaylistMorceauEcoute to PlaylistMorceau--><g id="link_PlaylistMorceauEcoute_PlaylistMorceau"><path codeLine="91" d="M237.5,141.5669 C237.5,161.5569 237.5,184.6669 237.5,204.2969 " fill="none" id="PlaylistMorceauEcoute-to-PlaylistMorceau" style="stroke:#181818;stroke-width:1.0;"/><polygon fill="#181818" points="237.5,217.5669,241.5,211.5669,237.5,205.5669,233.5,211.5669,237.5,217.5669" style="stroke:#181818;stroke-width:1.0;"/></g><!--MD5=[b57685e4accfaceebb6fa520a2abbf38]
link PlaylistPubEcoute to Playlist--><g id="link_PlaylistPubEcoute_Playlist"><path codeLine="92" d="M425.1,298.3769 C411.21,318.7769 394.98,342.6069 380.88,363.3169 " fill="none" id="PlaylistPubEcoute-to-Playlist" style="stroke:#181818;stroke-width:1.0;"/><polygon fill="#181818" points="373.51,374.1269,380.1931,371.4184,380.2635,364.2077,373.5803,366.9161,373.51,374.1269" style="stroke:#181818;stroke-width:1.0;"/></g><!--MD5=[8531848cd7e90560ed81f0e68a69c186]
link PlaylistPubEcoute to Publicité--><g id="link_PlaylistPubEcoute_Publicité"><path codeLine="93" d="M469.18,298.3769 C473.39,315.5469 478.2,335.1569 482.65,353.2769 " fill="none" id="PlaylistPubEcoute-to-Publicité" style="stroke:#181818;stroke-width:1.0;"/><polygon fill="#181818" points="485.81,366.1569,488.2643,359.3763,482.9492,354.5029,480.4949,361.2835,485.81,366.1569" style="stroke:#181818;stroke-width:1.0;"/></g><!--MD5=[b24caa298caeb44db6bc8c0a4e6d1b64]
@startuml

title Examen INFO4 BD 22-23 : Site d'écoute de musique


class Client {
  NumClient
  - -
  Email
  Nom
  Prenom
  MotDePasse
  Coordonnées
  CoordonnéesBancaire
  TypeClient
}


class Annonceur {
  NumAnnonceur
  - -
  NomSociété
  Coordonnées
}

class Categorie {
  NumCat
  - -
  NomCat
}

class Artiste {
  NumArtiste
  - -
  NomArtiste
}

class Album {
  NumAlbum
  - -
  NomAlbum
  TitreAlbum
}

class Morceau {
  NumMorceau
  - -
  TitreMorceau
  DureeMorceau
  Langue
}

class Playlist {
  NumPlaylist
  - -
  NomPlaylist
}

class PlaylistMorceau {
  OrdrePassage
  - -
}

class PlaylistMorceauEcoute {
  Date
  - -
  DureeEcoute
  TypeSupportEcoute
}

class PlaylistPubEcoute {
  Date
  - -
  DureeEcoute
  TypeSupportEcoute
}

class Publicité {
  NumPub
  - -
  TitrePub
  DuréePub
}

Album - -* Artiste
Playlist - -* Client
Publicité - -* Annonceur
Morceau - -* Album
Morceau - -o Categorie
PlaylistMorceau - -* Morceau
PlaylistMorceau - -* Playlist
PlaylistMorceauEcoute - -* PlaylistMorceau
PlaylistPubEcoute - -* Playlist
PlaylistPubEcoute - -* Publicité

@enduml

PlantUML version 1.2022.9(Tue Sep 27 16:10:06 GMT 2022)
(GPL source distribution)
Java Runtime: OpenJDK Runtime Environment
JVM: OpenJDK 64-Bit Server VM
Default Encoding: UTF-8
Language: en
Country: US
--></g></svg>