<?xml version="1.0" encoding="UTF-8" standalone="no"?><svg xmlns="http://www.w3.org/2000/svg" xmlns:xlink="http://www.w3.org/1999/xlink" contentStyleType="text/css" height="390px" preserveAspectRatio="none" style="width:417px;height:390px;background:#FFFFFF;" version="1.1" viewBox="0 0 417 390" width="417px" zoomAndPan="magnify"><defs/><g><text fill="#000000" font-family="sans-serif" font-size="12" lengthAdjust="spacing" textLength="24" x="55" y="16.1387">dmz</text><text fill="#000000" font-family="sans-serif" font-size="12" lengthAdjust="spacing" textLength="74" x="5" y="30.1074">210.x.x.x/24</text><text fill="#000000" font-family="sans-serif" font-size="12" lengthAdjust="spacing" textLength="48" x="31" y="205.6543">internal</text><text fill="#000000" font-family="sans-serif" font-size="12" lengthAdjust="spacing" textLength="74" x="5" y="219.623">172.x.x.x/24</text><rect fill="#FFAAAA" height="273.0508" style="stroke:#FFAAAA;stroke-width:1.0;" width="71" x="275" y="59.2734"/><path d="M285,62.2422 C282.8,62.2422 281,64.0422 281,66.2422 C281,68.4422 282.8,70.2422 285,70.2422 C287.2,70.2422 289,68.4422 289,66.2422 C289,64.0422 287.2,62.2422 285,62.2422 M285,63.2422 C286.66,63.2422 288,64.5822 288,66.2422 C288,67.9022 286.66,69.2422 285,69.2422 C283.34,69.2422 282,67.9022 282,66.2422 C282,64.5822 283.34,63.2422 285,63.2422 M284.5,64.2422 L284.5,66.4622 L284.66,66.5922 L285.16,67.0922 L285.5,67.4722 L286.22,66.7522 L285.84,66.4122 L285.5,66.0722 L285.5,64.2622 L284.5,64.2622 " fill="#000000" style="stroke:;stroke-width:0.0;stroke-dasharray:;"/><text fill="#000000" font-family="sans-serif" font-size="12" lengthAdjust="spacing" textLength="107" x="294" y="70.4121">Restarted nightly</text><path d="M410,62.2422 C407.8,62.2422 406,64.0422 406,66.2422 C406,68.4422 407.8,70.2422 410,70.2422 C412.2,70.2422 414,68.4422 414,66.2422 C414,64.0422 412.2,62.2422 410,62.2422 M410,63.2422 C411.66,63.2422 413,64.5822 413,66.2422 C413,67.9022 411.66,69.2422 410,69.2422 C408.34,69.2422 407,67.9022 407,66.2422 C407,64.5822 408.34,63.2422 410,63.2422 M409.5,64.2422 L409.5,66.4622 L409.66,66.5922 L410.16,67.0922 L410.5,67.4722 L411.22,66.7522 L410.84,66.4122 L410.5,66.0722 L410.5,64.2622 L409.5,64.2622 " fill="#000000" style="stroke:;stroke-width:0.0;stroke-dasharray:;"/><rect fill="#E2E2F0" height="5" style="stroke:#181818;stroke-width:1.0;" width="272" x="84" y="16.4688"/><rect fill="#E2E2F0" height="5" style="stroke:#181818;stroke-width:1.0;" width="272" x="84" y="205.9844"/><path d="M131,21.4688 L131,76.2422 " fill="none" style="stroke:#181818;stroke-width:1.0;"/><path d="M221.5,21.4688 L221.5,78.2422 " fill="none" style="stroke:#181818;stroke-width:1.0;"/><text fill="#000000" font-family="sans-serif" font-size="11" lengthAdjust="spacing" textLength="52" x="192" y="44.7612">210.x.x.1</text><text fill="#000000" font-family="sans-serif" font-size="11" lengthAdjust="spacing" textLength="59" x="192" y="57.5659">210.x.x.20</text><path d="M221.5,144.2109 L221.5,205.9844 " fill="none" style="stroke:#181818;stroke-width:1.0;"/><text fill="#000000" font-family="sans-serif" font-size="11" lengthAdjust="spacing" textLength="52" x="195.5" y="178.9058">172.x.x.1</text><path d="M312.5,21.4688 L312.5,78.2422 " fill="none" style="stroke:#181818;stroke-width:1.0;"/><text fill="#000000" font-family="sans-serif" font-size="11" lengthAdjust="spacing" textLength="52" x="286.5" y="44.1792">210.x.x.2</text><path d="M312.5,144.2109 L312.5,205.9844 " fill="none" style="stroke:#181818;stroke-width:1.0;"/><text fill="#000000" font-family="sans-serif" font-size="11" lengthAdjust="spacing" textLength="52" x="286.5" y="178.9058">172.x.x.2</text><path d="M127,210.9844 L127,261.3555 " fill="none" style="stroke:#181818;stroke-width:1.0;"/><text fill="#000000" font-family="sans-serif" font-size="11" lengthAdjust="spacing" textLength="66" x="94" y="237.478">172.x.x.101</text><path d="M217.5,210.9844 L217.5,261.3555 " fill="none" style="stroke:#181818;stroke-width:1.0;"/><text fill="#000000" font-family="sans-serif" font-size="11" lengthAdjust="spacing" textLength="66" x="184.5" y="237.478">172.x.x.110</text><path d="M308.5,210.9844 L308.5,261.3555 " fill="none" style="stroke:#181818;stroke-width:1.0;"/><text fill="#000000" font-family="sans-serif" font-size="11" lengthAdjust="spacing" textLength="66" x="275.5" y="230.4937">172.x.x.100</text><rect fill="#F1F1F1" height="69.9688" style="stroke:#181818;stroke-width:0.5;" width="60" x="99" y="76.2422"/><path d="M128,86.2422 C123.05,86.2422 119,91.2822 119,97.4922 C119,103.7022 123.05,108.7422 128,108.7422 C132.95,108.7422 137,103.7022 137,97.4922 C137,91.2822 132.95,86.2422 128,86.2422 M118.595,108.7422 C113.825,108.9672 110,112.8822 110,117.7422 L110,122.2422 L146,122.2422 L146,117.7422 C146,112.8822 142.22,108.9672 137.405,108.7422 C134.975,111.4872 131.645,113.2422 128,113.2422 C124.355,113.2422 121.025,111.4872 118.595,108.7422 " fill="#000000" style="stroke:;stroke-width:0.0;stroke-dasharray:;"/><text fill="#000000" font-family="sans-serif" font-size="12" lengthAdjust="spacing" textLength="36" x="113" y="133.3809">user1</text><rect fill="#F1F1F1" height="65.9688" style="stroke:#181818;stroke-width:0.5;" width="61" x="189" y="78.2422"/><path d="M214,88.2422 L212,93.0022 C211.6,93.1222 211.24,93.3222 210.88,93.5222 L206.12,91.5222 L203.24,94.4022 L205.24,99.1622 C205.04,99.5622 204.88,99.8822 204.72,100.2822 L199.96,102.2822 L199.96,106.2822 L204.72,108.2822 C204.88,108.6822 205.04,109.0022 205.24,109.4022 L203.24,114.1622 L206.12,117.0422 L210.88,115.0422 C211.24,115.2022 211.6,115.4022 212,115.5622 L214,120.3222 L218,120.3222 L220,115.5622 C220.36,115.4022 220.76,115.2422 221.12,115.0422 L225.88,117.0422 L228.76,114.1622 L226.76,109.4022 C226.92,109.0422 227.12,108.6422 227.28,108.2822 L232.04,106.2822 L232.04,102.2822 L227.28,100.2822 C227.16,99.9222 226.96,99.5222 226.76,99.1622 L228.76,94.4022 L225.88,91.5222 L221.12,93.5222 C220.76,93.3622 220.36,93.1622 220,93.0022 L218,88.2422 L214,88.2422 M216,98.2422 C219.32,98.2422 222,100.9222 222,104.2422 C222,107.5622 219.32,110.2422 216,110.2422 C212.68,110.2422 210,107.5622 210,104.2422 C210,100.9222 212.68,98.2422 216,98.2422 " fill="#000000" style="stroke:;stroke-width:0.0;stroke-dasharray:;"/><text fill="#000000" font-family="sans-serif" font-size="12" lengthAdjust="spacing" textLength="41" x="199" y="131.3809">web01</text><rect fill="#F1F1F1" height="65.9688" style="stroke:#181818;stroke-width:0.5;" width="61" x="280" y="78.2422"/><path d="M305,88.2422 L303,93.0022 C302.6,93.1222 302.24,93.3222 301.88,93.5222 L297.12,91.5222 L294.24,94.4022 L296.24,99.1622 C296.04,99.5622 295.88,99.8822 295.72,100.2822 L290.96,102.2822 L290.96,106.2822 L295.72,108.2822 C295.88,108.6822 296.04,109.0022 296.24,109.4022 L294.24,114.1622 L297.12,117.0422 L301.88,115.0422 C302.24,115.2022 302.6,115.4022 303,115.5622 L305,120.3222 L309,120.3222 L311,115.5622 C311.36,115.4022 311.76,115.2422 312.12,115.0422 L316.88,117.0422 L319.76,114.1622 L317.76,109.4022 C317.92,109.0422 318.12,108.6422 318.28,108.2822 L323.04,106.2822 L323.04,102.2822 L318.28,100.2822 C318.16,99.9222 317.96,99.5222 317.76,99.1622 L319.76,94.4022 L316.88,91.5222 L312.12,93.5222 C311.76,93.3622 311.36,93.1622 311,93.0022 L309,88.2422 L305,88.2422 M307,98.2422 C310.32,98.2422 313,100.9222 313,104.2422 C313,107.5622 310.32,110.2422 307,110.2422 C303.68,110.2422 301,107.5622 301,104.2422 C301,100.9222 303.68,98.2422 307,98.2422 " fill="#000000" style="stroke:;stroke-width:0.0;stroke-dasharray:;"/><text fill="#000000" font-family="sans-serif" font-size="12" lengthAdjust="spacing" textLength="41" x="290" y="131.3809">web02</text><rect fill="#F1F1F1" height="65.9688" style="stroke:#181818;stroke-width:0.5;" width="56" x="101" y="261.3555"/><path d="M115,271.3555 C113.36,271.3555 112,272.7155 112,274.3555 L112,296.3555 C112,297.9955 113.36,299.3555 115,299.3555 L141,299.3555 C142.64,299.3555 144,297.9955 144,296.3555 L144,274.3555 C144,272.7155 142.64,271.3555 141,271.3555 L115,271.3555 M116,275.3555 L120,275.3555 L120,279.3555 L116,279.3555 L116,275.3555 M124,275.3555 L140,275.3555 L140,279.3555 L124,279.3555 L124,275.3555 M116,283.3555 L120,283.3555 L120,287.3555 L116,287.3555 L116,283.3555 M124,283.3555 L140,283.3555 L140,287.3555 L124,287.3555 L124,283.3555 M116,291.3555 L120,291.3555 L120,295.3555 L116,295.3555 L116,291.3555 M124,291.3555 L140,291.3555 L140,295.3555 L124,295.3555 L124,291.3555 " fill="#000000" style="stroke:;stroke-width:0.0;stroke-dasharray:;"/><text fill="#000000" font-family="sans-serif" font-size="12" lengthAdjust="spacing" textLength="32" x="115" y="314.4941">db02</text><rect fill="#F1F1F1" height="65.9688" style="stroke:#181818;stroke-width:0.5;" width="58" x="190.5" y="261.3555"/><path d="M209.5,271.3555 L209.5,279.3555 L225.5,279.3555 L225.5,271.3555 L209.5,271.3555 M201.86,283.3555 C201.62,283.3555 201.5,283.5155 201.5,283.7155 L201.5,294.9555 C201.5,295.1555 201.66,295.3155 201.86,295.3155 L205.5,295.3155 L205.5,287.3155 L229.5,287.3155 L229.5,295.3155 L233.14,295.3155 C233.34,295.3155 233.5,295.1555 233.5,294.9555 L233.5,283.7155 C233.5,283.4755 233.34,283.3555 233.14,283.3555 L201.9,283.3555 M209.5,291.3555 L209.5,303.3555 L225.5,303.3555 L225.5,291.3555 L209.5,291.3555 " fill="#000000" style="stroke:;stroke-width:0.0;stroke-dasharray:;"/><text fill="#000000" font-family="sans-serif" font-size="12" lengthAdjust="spacing" textLength="34" x="204.5" y="314.4941">ptr01</text><rect fill="#F1F1F1" height="65.9688" style="stroke:#181818;stroke-width:0.5;" width="56" x="282.5" y="261.3555"/><path d="M296.5,271.3555 C294.86,271.3555 293.5,272.7155 293.5,274.3555 L293.5,296.3555 C293.5,297.9955 294.86,299.3555 296.5,299.3555 L322.5,299.3555 C324.14,299.3555 325.5,297.9955 325.5,296.3555 L325.5,274.3555 C325.5,272.7155 324.14,271.3555 322.5,271.3555 L296.5,271.3555 M297.5,275.3555 L301.5,275.3555 L301.5,279.3555 L297.5,279.3555 L297.5,275.3555 M305.5,275.3555 L321.5,275.3555 L321.5,279.3555 L305.5,279.3555 L305.5,275.3555 M297.5,283.3555 L301.5,283.3555 L301.5,287.3555 L297.5,287.3555 L297.5,283.3555 M305.5,283.3555 L321.5,283.3555 L321.5,287.3555 L305.5,287.3555 L305.5,283.3555 M297.5,291.3555 L301.5,291.3555 L301.5,295.3555 L297.5,295.3555 L297.5,291.3555 M305.5,291.3555 L321.5,291.3555 L321.5,295.3555 L305.5,295.3555 L305.5,291.3555 " fill="#000000" style="stroke:;stroke-width:0.0;stroke-dasharray:;"/><text fill="#000000" font-family="sans-serif" font-size="12" lengthAdjust="spacing" textLength="32" x="296.5" y="314.4941">db01</text><!--MD5=[598cd04eac634406f73a9f4ad4db2257]
@startuml

nwdiag {
  group nightly {
    color = "#FFAAAA";
    description = "<&clock> Restarted nightly <&clock>";
    web02;
    db01;
  }
  network dmz {
      address = "210.x.x.x/24"

      user [description = "<&person*4.5>\n user1"];
      // set multiple addresses (using comma)
      web01 [address = "210.x.x.1, 210.x.x.20",  description = "<&cog*4>\nweb01"]
      web02 [address = "210.x.x.2",  description = "<&cog*4>\nweb02"];

  }
  network internal {
      address = "172.x.x.x/24";

      web01 [address = "172.x.x.1"];
      web02 [address = "172.x.x.2"];
      db01 [address = "172.x.x.100",  description = "<&spreadsheet*4>\n db01"];
      db02 [address = "172.x.x.101",  description = "<&spreadsheet*4>\n db02"];
      ptr  [address = "172.x.x.110",  description = "<&print*4>\n ptr01"];
  }
}
@enduml

PlantUML version 1.2022.9(Tue Sep 27 16:10:06 GMT 2022)
(GPL source distribution)
Java Runtime: OpenJDK Runtime Environment
JVM: OpenJDK 64-Bit Server VM
Default Encoding: UTF-8
Language: en
Country: US
--></g></svg>