<?xml version="1.0" encoding="UTF-8" standalone="no"?><svg xmlns="http://www.w3.org/2000/svg" xmlns:xlink="http://www.w3.org/1999/xlink" contentStyleType="text/css" height="68px" preserveAspectRatio="none" style="width:172px;height:68px;background:#FFFFFF;" version="1.1" viewBox="0 0 172 68" width="172px" zoomAndPan="magnify"><defs/><g><text fill="#000000" font-family="sans-serif" font-size="12" lengthAdjust="spacing" textLength="33" x="6" y="17.1387">Login</text><path d="M44,8.9688 C42.9,8.9688 42,10.0888 42,11.4688 C42,12.8487 42.9,13.9688 44,13.9688 C45.1,13.9688 46,12.8487 46,11.4688 C46,10.0888 45.1,8.9688 44,8.9688 M41.91,13.9688 C40.85,14.0188 40,14.8888 40,15.9688 L40,16.9688 L48,16.9688 L48,15.9688 C48,14.8888 47.16,14.0188 46.09,13.9688 C45.55,14.5788 44.81,14.9688 44,14.9688 C43.19,14.9688 42.45,14.5788 41.91,13.9688 " fill="#000000" style="stroke:;stroke-width:0.0;stroke-dasharray:;"/><text fill="#000000" font-family="sans-serif" font-size="12" lengthAdjust="spacing" textLength="52" x="92" y="17.1387">MyName</text><line style="stroke:#000000;stroke-width:1.0;" x1="90" x2="165" y1="19.9688" y2="19.9688"/><line style="stroke:#000000;stroke-width:1.0;" x1="90" x2="90" y1="16.9688" y2="18.9688"/><line style="stroke:#000000;stroke-width:1.0;" x1="165" x2="165" y1="16.9688" y2="18.9688"/><text fill="#000000" font-family="sans-serif" font-size="12" lengthAdjust="spacing" textLength="60" x="6" y="35.1074">Password</text><path d="M72.5,26.9375 C71.12,26.9375 70,28.0575 70,29.4375 C70,29.5975 70,29.7575 70.03,29.9075 L67,32.9375 L67,34.9375 L70,34.9375 L70,32.9375 L72,32.9375 L72,31.9375 L72.03,31.9075 C72.18,31.9375 72.34,31.9375 72.5,31.9375 C73.88,31.9375 75,30.8175 75,29.4375 C75,28.0575 73.88,26.9375 72.5,26.9375 M73,27.9375 C73.55,27.9375 74,28.3875 74,28.9375 C74,29.4875 73.55,29.9375 73,29.9375 C72.45,29.9375 72,29.4875 72,28.9375 C72,28.3875 72.45,27.9375 73,27.9375 " fill="#000000" style="stroke:;stroke-width:0.0;stroke-dasharray:;"/><text fill="#000000" font-family="sans-serif" font-size="12" lengthAdjust="spacing" textLength="24" x="92" y="35.1074">****</text><line style="stroke:#000000;stroke-width:1.0;" x1="90" x2="165" y1="37.9375" y2="37.9375"/><line style="stroke:#000000;stroke-width:1.0;" x1="90" x2="90" y1="34.9375" y2="36.9375"/><line style="stroke:#000000;stroke-width:1.0;" x1="165" x2="165" y1="34.9375" y2="36.9375"/><rect fill="#EEEEEE" height="17.9688" rx="5" ry="5" style="stroke:#000000;stroke-width:2.5;" width="76" x="8.5" y="44.4375"/><text fill="#000000" font-family="sans-serif" font-size="12" lengthAdjust="spacing" textLength="42" x="18.5" y="57.5762">Cancel</text><path d="M69.5,49.4063 C67.29,49.4063 65.5,51.1963 65.5,53.4063 C65.5,55.6163 67.29,57.4063 69.5,57.4063 C71.71,57.4063 73.5,55.6163 73.5,53.4063 C73.5,51.1963 71.71,49.4063 69.5,49.4063 M68,51.1863 L69.5,52.6863 L71,51.1863 L71.72,51.9063 L70.22,53.4063 L71.72,54.9063 L71,55.6263 L69.5,54.1263 L68,55.6263 L67.28,54.9063 L68.78,53.4063 L67.28,51.9063 L68,51.1863 " fill="#000000" style="stroke:;stroke-width:0.0;stroke-dasharray:;"/><rect fill="#EEEEEE" height="17.9688" rx="5" ry="5" style="stroke:#000000;stroke-width:2.5;" width="44" x="91.5" y="44.4375"/><text fill="#000000" font-family="sans-serif" font-size="12" lengthAdjust="spacing" textLength="16" x="98.5" y="57.5762">OK</text><path d="M122.5,49.4063 L122.5,50.4063 L126.5,50.4063 L126.5,55.4063 L122.5,55.4063 L122.5,56.4063 L127.5,56.4063 L127.5,49.4063 L122.5,49.4063 M123.5,51.4063 L123.5,52.4063 L119.5,52.4063 L119.5,53.4063 L123.5,53.4063 L123.5,54.4063 L125.5,52.9063 L123.5,51.4063 " fill="#000000" style="stroke:;stroke-width:0.0;stroke-dasharray:;"/><!--MD5=[1976cd11d2c3aaf670aae20c822adbaa]
@startsalt
{
  Login<&person> | "MyName   "
  Password<&key> | "****     "
  [Cancel <&circle-x>] | [OK <&account-login>]
}
@endsalt

PlantUML version 1.2022.9(Tue Sep 27 16:10:06 GMT 2022)
(GPL source distribution)
Java Runtime: OpenJDK Runtime Environment
JVM: OpenJDK 64-Bit Server VM
Default Encoding: UTF-8
Language: en
Country: US
--></g></svg>