<?xml version="1.0" encoding="UTF-8" standalone="no"?><svg xmlns="http://www.w3.org/2000/svg" xmlns:xlink="http://www.w3.org/1999/xlink" contentStyleType="text/css" height="156px" preserveAspectRatio="none" style="width:695px;height:156px;background:#FFFFFF;" version="1.1" viewBox="0 0 695 156" width="695px" zoomAndPan="magnify"><defs/><g><line style="stroke:#333333;stroke-width:0.5;" x1="10" x2="10" y1="10" y2="126.2969"/><line style="stroke:#333333;stroke-width:0.5;" x1="678" x2="678" y1="10" y2="126.2969"/><line style="stroke:#333333;stroke-width:0.5;stroke-dasharray:3.0,5.0;" x1="73" x2="73" y1="10" y2="126.2969"/><line style="stroke:#333333;stroke-width:0.5;stroke-dasharray:3.0,5.0;" x1="123" x2="123" y1="10" y2="126.2969"/><line style="stroke:#333333;stroke-width:0.5;stroke-dasharray:3.0,5.0;" x1="173" x2="173" y1="10" y2="126.2969"/><line style="stroke:#333333;stroke-width:0.5;stroke-dasharray:3.0,5.0;" x1="223" x2="223" y1="10" y2="126.2969"/><line style="stroke:#333333;stroke-width:0.5;stroke-dasharray:3.0,5.0;" x1="273" x2="273" y1="10" y2="126.2969"/><line style="stroke:#333333;stroke-width:0.5;stroke-dasharray:3.0,5.0;" x1="323" x2="323" y1="10" y2="126.2969"/><line style="stroke:#333333;stroke-width:0.5;stroke-dasharray:3.0,5.0;" x1="373" x2="373" y1="10" y2="126.2969"/><line style="stroke:#333333;stroke-width:0.5;stroke-dasharray:3.0,5.0;" x1="423" x2="423" y1="10" y2="126.2969"/><line style="stroke:#333333;stroke-width:0.5;stroke-dasharray:3.0,5.0;" x1="473" x2="473" y1="10" y2="126.2969"/><line style="stroke:#333333;stroke-width:0.5;stroke-dasharray:3.0,5.0;" x1="523" x2="523" y1="10" y2="126.2969"/><line style="stroke:#333333;stroke-width:0.5;stroke-dasharray:3.0,5.0;" x1="573" x2="573" y1="10" y2="126.2969"/><line style="stroke:#333333;stroke-width:0.5;stroke-dasharray:3.0,5.0;" x1="623" x2="623" y1="10" y2="126.2969"/><line style="stroke:#333333;stroke-width:0.5;stroke-dasharray:3.0,5.0;" x1="673" x2="673" y1="10" y2="126.2969"/><line style="stroke:#333333;stroke-width:0.5;" x1="10" x2="678" y1="10" y2="10"/><line style="stroke:#006400;stroke-width:1.5;" x1="73" x2="73" y1="18" y2="32"/><line style="stroke:#006400;stroke-width:1.5;" x1="73" x2="98" y1="18" y2="18"/><line style="stroke:#006400;stroke-width:1.5;" x1="98" x2="98" y1="18" y2="32"/><line style="stroke:#006400;stroke-width:1.5;" x1="98" x2="123" y1="32" y2="32"/><line style="stroke:#006400;stroke-width:1.5;" x1="123" x2="123" y1="18" y2="32"/><line style="stroke:#006400;stroke-width:1.5;" x1="123" x2="148" y1="18" y2="18"/><line style="stroke:#006400;stroke-width:1.5;" x1="148" x2="148" y1="18" y2="32"/><line style="stroke:#006400;stroke-width:1.5;" x1="148" x2="173" y1="32" y2="32"/><line style="stroke:#006400;stroke-width:1.5;" x1="173" x2="173" y1="18" y2="32"/><line style="stroke:#006400;stroke-width:1.5;" x1="173" x2="198" y1="18" y2="18"/><line style="stroke:#006400;stroke-width:1.5;" x1="198" x2="198" y1="18" y2="32"/><line style="stroke:#006400;stroke-width:1.5;" x1="198" x2="223" y1="32" y2="32"/><line style="stroke:#006400;stroke-width:1.5;" x1="223" x2="223" y1="18" y2="32"/><line style="stroke:#006400;stroke-width:1.5;" x1="223" x2="248" y1="18" y2="18"/><line style="stroke:#006400;stroke-width:1.5;" x1="248" x2="248" y1="18" y2="32"/><line style="stroke:#006400;stroke-width:1.5;" x1="248" x2="273" y1="32" y2="32"/><line style="stroke:#006400;stroke-width:1.5;" x1="273" x2="273" y1="18" y2="32"/><line style="stroke:#006400;stroke-width:1.5;" x1="273" x2="298" y1="18" y2="18"/><line style="stroke:#006400;stroke-width:1.5;" x1="298" x2="298" y1="18" y2="32"/><line style="stroke:#006400;stroke-width:1.5;" x1="298" x2="323" y1="32" y2="32"/><line style="stroke:#006400;stroke-width:1.5;" x1="323" x2="323" y1="18" y2="32"/><line style="stroke:#006400;stroke-width:1.5;" x1="323" x2="348" y1="18" y2="18"/><line style="stroke:#006400;stroke-width:1.5;" x1="348" x2="348" y1="18" y2="32"/><line style="stroke:#006400;stroke-width:1.5;" x1="348" x2="373" y1="32" y2="32"/><line style="stroke:#006400;stroke-width:1.5;" x1="373" x2="373" y1="18" y2="32"/><line style="stroke:#006400;stroke-width:1.5;" x1="373" x2="398" y1="18" y2="18"/><line style="stroke:#006400;stroke-width:1.5;" x1="398" x2="398" y1="18" y2="32"/><line style="stroke:#006400;stroke-width:1.5;" x1="398" x2="423" y1="32" y2="32"/><line style="stroke:#006400;stroke-width:1.5;" x1="423" x2="423" y1="18" y2="32"/><line style="stroke:#006400;stroke-width:1.5;" x1="423" x2="448" y1="18" y2="18"/><line style="stroke:#006400;stroke-width:1.5;" x1="448" x2="448" y1="18" y2="32"/><line style="stroke:#006400;stroke-width:1.5;" x1="448" x2="473" y1="32" y2="32"/><line style="stroke:#006400;stroke-width:1.5;" x1="473" x2="473" y1="18" y2="32"/><line style="stroke:#006400;stroke-width:1.5;" x1="473" x2="498" y1="18" y2="18"/><line style="stroke:#006400;stroke-width:1.5;" x1="498" x2="498" y1="18" y2="32"/><line style="stroke:#006400;stroke-width:1.5;" x1="498" x2="523" y1="32" y2="32"/><line style="stroke:#006400;stroke-width:1.5;" x1="523" x2="523" y1="18" y2="32"/><line style="stroke:#006400;stroke-width:1.5;" x1="523" x2="548" y1="18" y2="18"/><line style="stroke:#006400;stroke-width:1.5;" x1="548" x2="548" y1="18" y2="32"/><line style="stroke:#006400;stroke-width:1.5;" x1="548" x2="573" y1="32" y2="32"/><line style="stroke:#006400;stroke-width:1.5;" x1="573" x2="573" y1="18" y2="32"/><line style="stroke:#006400;stroke-width:1.5;" x1="573" x2="598" y1="18" y2="18"/><line style="stroke:#006400;stroke-width:1.5;" x1="598" x2="598" y1="18" y2="32"/><line style="stroke:#006400;stroke-width:1.5;" x1="598" x2="623" y1="32" y2="32"/><line style="stroke:#006400;stroke-width:1.5;" x1="623" x2="623" y1="18" y2="32"/><line style="stroke:#006400;stroke-width:1.5;" x1="623" x2="648" y1="18" y2="18"/><line style="stroke:#006400;stroke-width:1.5;" x1="648" x2="648" y1="18" y2="32"/><line style="stroke:#006400;stroke-width:1.5;" x1="648" x2="673" y1="32" y2="32"/><line style="stroke:#006400;stroke-width:1.5;" x1="673" x2="673" y1="18" y2="32"/><line style="stroke:#006400;stroke-width:1.5;" x1="673" x2="673" y1="18" y2="18"/><line style="stroke:#333333;stroke-width:0.5;" x1="10" x2="678" y1="40" y2="40"/><text fill="#333333" font-family="sans-serif" font-size="14" font-weight="bold" lengthAdjust="spacing" textLength="53" x="15" y="59.8467">enable</text><line style="stroke:#006400;stroke-width:2.0;" x1="73" x2="73" y1="62" y2="62"/><line style="stroke:#006400;stroke-width:2.0;" x1="73" x2="323" y1="62" y2="62"/><line style="stroke:#006400;stroke-width:2.0;" x1="323" x2="323" y1="48" y2="62"/><line style="stroke:#006400;stroke-width:2.0;" x1="323" x2="573" y1="48" y2="48"/><line style="stroke:#006400;stroke-width:2.0;" x1="573" x2="573" y1="48" y2="62"/><line style="stroke:#006400;stroke-width:2.0;" x1="573" x2="673" y1="62" y2="62"/><line style="stroke:#333333;stroke-width:0.5;" x1="10" x2="678" y1="70" y2="70"/><text fill="#333333" font-family="sans-serif" font-size="14" font-weight="bold" lengthAdjust="spacing" textLength="63" x="15" y="82.9951">dataBus</text><line style="stroke:#333333;stroke-width:0.5;" x1="10" x2="79" y1="87.2969" y2="87.2969"/><line style="stroke:#333333;stroke-width:0.5;" x1="79" x2="89" y1="87.2969" y2="70"/><polygon fill="#E2E2F0" points="85,92.2969,211,92.2969,223,104.2969,211,116.2969,85,116.2969,73,104.2969" style="stroke:#006400;stroke-width:1.5;"/><polygon fill="#E2E2F0" points="235,92.2969,611,92.2969,623,104.2969,611,116.2969,235,116.2969,223,104.2969" style="stroke:#006400;stroke-width:1.5;"/><polygon fill="#E2E2F0" points="635,92.2969,673,92.2969,673,116.2969,635,116.2969,623,104.2969" style="stroke:#E2E2F0;stroke-width:1.5;"/><path d="M673,92.2969 L635,92.2969 L623,104.2969 L635,116.2969 L673,116.2969 " fill="#E2E2F0" style="stroke:#006400;stroke-width:1.5;"/><text fill="#333333" font-family="sans-serif" font-size="12" font-weight="bold" lengthAdjust="spacing" textLength="47" x="124.5" y="108.4512">0x0000</text><text fill="#333333" font-family="sans-serif" font-size="12" font-weight="bold" lengthAdjust="spacing" textLength="45" x="400.5" y="108.4512">0xf23a</text><text fill="#333333" font-family="sans-serif" font-size="12" font-weight="bold" lengthAdjust="spacing" textLength="47" x="635" y="108.4512">0x0000</text><line style="stroke:#333333;stroke-width:2.0;" x1="73" x2="73" y1="126.2969" y2="131.2969"/><line style="stroke:#333333;stroke-width:2.0;" x1="123" x2="123" y1="126.2969" y2="131.2969"/><line style="stroke:#333333;stroke-width:2.0;" x1="173" x2="173" y1="126.2969" y2="131.2969"/><line style="stroke:#333333;stroke-width:2.0;" x1="223" x2="223" y1="126.2969" y2="131.2969"/><line style="stroke:#333333;stroke-width:2.0;" x1="273" x2="273" y1="126.2969" y2="131.2969"/><line style="stroke:#333333;stroke-width:2.0;" x1="323" x2="323" y1="126.2969" y2="131.2969"/><line style="stroke:#333333;stroke-width:2.0;" x1="373" x2="373" y1="126.2969" y2="131.2969"/><line style="stroke:#333333;stroke-width:2.0;" x1="423" x2="423" y1="126.2969" y2="131.2969"/><line style="stroke:#333333;stroke-width:2.0;" x1="473" x2="473" y1="126.2969" y2="131.2969"/><line style="stroke:#333333;stroke-width:2.0;" x1="523" x2="523" y1="126.2969" y2="131.2969"/><line style="stroke:#333333;stroke-width:2.0;" x1="573" x2="573" y1="126.2969" y2="131.2969"/><line style="stroke:#333333;stroke-width:2.0;" x1="623" x2="623" y1="126.2969" y2="131.2969"/><line style="stroke:#333333;stroke-width:2.0;" x1="673" x2="673" y1="126.2969" y2="131.2969"/><line style="stroke:#333333;stroke-width:2.0;" x1="73" x2="673" y1="126.2969" y2="126.2969"/><text fill="#333333" font-family="sans-serif" font-size="11" lengthAdjust="spacing" textLength="7" x="69.5" y="142.5073">0</text><text fill="#333333" font-family="sans-serif" font-size="11" lengthAdjust="spacing" textLength="7" x="119.5" y="142.5073">1</text><text fill="#333333" font-family="sans-serif" font-size="11" lengthAdjust="spacing" textLength="7" x="219.5" y="142.5073">3</text><text fill="#333333" font-family="sans-serif" font-size="11" lengthAdjust="spacing" textLength="7" x="319.5" y="142.5073">5</text><text fill="#333333" font-family="sans-serif" font-size="11" lengthAdjust="spacing" textLength="14" x="566" y="142.5073">10</text><text fill="#333333" font-family="sans-serif" font-size="11" lengthAdjust="spacing" textLength="14" x="616" y="142.5073">11</text><!--MD5=[a8c4d94041ed5f155eeff404ceea9f11]
@startuml
clock clk with period 1
binary "enable" as EN
concise "dataBus" as db

@0 as :start
@5 as :en_high 
@10 as :en_low
@:en_high-2 as :en_highMinus2

@:start
EN is low
db is "0x0000"

@:en_high
EN is high

@:en_low
EN is low

@:en_highMinus2
db is "0xf23a"

@:en_high+6
db is "0x0000"
@enduml

PlantUML version 1.2022.9(Tue Sep 27 16:10:06 GMT 2022)
(GPL source distribution)
Java Runtime: OpenJDK Runtime Environment
JVM: OpenJDK 64-Bit Server VM
Default Encoding: UTF-8
Language: en
Country: US
--></g></svg>